<svg width="40" height="40" viewBox="0 0 40 40" fill="none" xmlns="http://www.w3.org/2000/svg">
<mask id="mask0_614_5158" style="mask-type:alpha" maskUnits="userSpaceOnUse" x="0" y="0" width="40" height="40">
<rect width="40" height="40" fill="#D9D9D9"/>
</mask>
<g mask="url(#mask0_614_5158)">
<path d="M8.84621 35.8335C8.00432 35.8335 7.29171 35.5418 6.70837 34.9585C6.12504 34.3752 5.83337 33.6625 5.83337 32.8207V10.5131C5.83337 9.67118 6.12504 8.95857 6.70837 8.37523C7.29171 7.7919 8.00432 7.50023 8.84621 7.50023H11.1539V5.25661C11.1539 4.89125 11.2762 4.58623 11.5209 4.34157C11.7656 4.09693 12.0706 3.97461 12.436 3.97461C12.8013 3.97461 13.1063 4.09693 13.351 4.34157C13.5956 4.58623 13.718 4.89125 13.718 5.25661V7.50023H26.3461V5.22457C26.3461 4.86987 26.4658 4.57287 26.7051 4.33357C26.9444 4.09426 27.2414 3.97461 27.5961 3.97461C27.9508 3.97461 28.2478 4.09426 28.4871 4.33357C28.7264 4.57287 28.8461 4.86987 28.8461 5.22457V7.50023H31.1538C31.9957 7.50023 32.7083 7.7919 33.2916 8.37523C33.875 8.95857 34.1666 9.67118 34.1666 10.5131V32.8207C34.1666 33.6625 33.875 34.3752 33.2916 34.9585C32.7083 35.5418 31.9957 35.8335 31.1538 35.8335H8.84621ZM8.84621 33.3335H31.1538C31.282 33.3335 31.3996 33.2801 31.5064 33.1733C31.6132 33.0664 31.6667 32.9489 31.6667 32.8207V17.1797H8.33333V32.8207C8.33333 32.9489 8.38675 33.0664 8.49358 33.1733C8.60044 33.2801 8.71799 33.3335 8.84621 33.3335ZM8.33333 14.6798H31.6667V10.5131C31.6667 10.3848 31.6132 10.2673 31.5064 10.1604C31.3996 10.0536 31.282 10.0002 31.1538 10.0002H8.84621C8.71799 10.0002 8.60044 10.0536 8.49358 10.1604C8.38675 10.2673 8.33333 10.3848 8.33333 10.5131V14.6798ZM20 23.4617C19.5919 23.4617 19.2441 23.318 18.9567 23.0307C18.6694 22.7433 18.5257 22.3955 18.5257 21.9874C18.5257 21.5793 18.6694 21.2315 18.9567 20.9442C19.2441 20.6568 19.5919 20.5131 20 20.5131C20.4081 20.5131 20.7559 20.6568 21.0432 20.9442C21.3306 21.2315 21.4743 21.5793 21.4743 21.9874C21.4743 22.3955 21.3306 22.7433 21.0432 23.0307C20.7559 23.318 20.4081 23.4617 20 23.4617ZM13.3333 23.4617C12.9252 23.4617 12.5775 23.318 12.2901 23.0307C12.0027 22.7433 11.859 22.3955 11.859 21.9874C11.859 21.5793 12.0027 21.2315 12.2901 20.9442C12.5775 20.6568 12.9252 20.5131 13.3333 20.5131C13.7414 20.5131 14.0892 20.6568 14.3766 20.9442C14.664 21.2315 14.8077 21.5793 14.8077 21.9874C14.8077 22.3955 14.664 22.7433 14.3766 23.0307C14.0892 23.318 13.7414 23.4617 13.3333 23.4617ZM26.6667 23.4617C26.2586 23.4617 25.9108 23.318 25.6234 23.0307C25.336 22.7433 25.1923 22.3955 25.1923 21.9874C25.1923 21.5793 25.336 21.2315 25.6234 20.9442C25.9108 20.6568 26.2586 20.5131 26.6667 20.5131C27.0748 20.5131 27.4225 20.6568 27.7099 20.9442C27.9973 21.2315 28.141 21.5793 28.141 21.9874C28.141 22.3955 27.9973 22.7433 27.7099 23.0307C27.4225 23.318 27.0748 23.4617 26.6667 23.4617ZM20 30.0002C19.5919 30.0002 19.2441 29.8565 18.9567 29.5691C18.6694 29.2817 18.5257 28.934 18.5257 28.5259C18.5257 28.1178 18.6694 27.77 18.9567 27.4826C19.2441 27.1952 19.5919 27.0515 20 27.0515C20.4081 27.0515 20.7559 27.1952 21.0432 27.4826C21.3306 27.77 21.4743 28.1178 21.4743 28.5259C21.4743 28.934 21.3306 29.2817 21.0432 29.5691C20.7559 29.8565 20.4081 30.0002 20 30.0002ZM13.3333 30.0002C12.9252 30.0002 12.5775 29.8565 12.2901 29.5691C12.0027 29.2817 11.859 28.934 11.859 28.5259C11.859 28.1178 12.0027 27.77 12.2901 27.4826C12.5775 27.1952 12.9252 27.0515 13.3333 27.0515C13.7414 27.0515 14.0892 27.1952 14.3766 27.4826C14.664 27.77 14.8077 28.1178 14.8077 28.5259C14.8077 28.934 14.664 29.2817 14.3766 29.5691C14.0892 29.8565 13.7414 30.0002 13.3333 30.0002ZM26.6667 30.0002C26.2586 30.0002 25.9108 29.8565 25.6234 29.5691C25.336 29.2817 25.1923 28.934 25.1923 28.5259C25.1923 28.1178 25.336 27.77 25.6234 27.4826C25.9108 27.1952 26.2586 27.0515 26.6667 27.0515C27.0748 27.0515 27.4225 27.1952 27.7099 27.4826C27.9973 27.77 28.141 28.1178 28.141 28.5259C28.141 28.934 27.9973 29.2817 27.7099 29.5691C27.4225 29.8565 27.0748 30.0002 26.6667 30.0002Z" fill="#333333"/>
</g>
</svg>
