<svg width="195" height="173" viewBox="0 0 195 173" fill="none" xmlns="http://www.w3.org/2000/svg">
<g filter="url(#filter0_f_26_11)">
<path d="M145 58.5911C141.506 60.0429 137.753 61.0239 133.808 61.4672C137.879 59.1828 140.925 55.5874 142.377 51.3518C138.552 53.4824 134.366 54.982 130.001 55.7856C127.065 52.8462 123.177 50.8979 118.94 50.2432C114.703 49.5886 110.353 50.2641 106.568 52.165C102.782 54.0659 99.7709 57.0858 98.0027 60.7559C96.2345 64.4259 95.8078 68.5408 96.7887 72.4616C89.0388 72.0967 81.4573 70.2076 74.5363 66.917C67.6152 63.6263 61.5093 59.0077 56.6148 53.3608C54.9412 56.0682 53.9789 59.2072 53.9789 62.5502C53.977 65.5597 54.7673 68.5231 56.2796 71.1775C57.7918 73.8319 59.9793 76.0951 62.648 77.7665C59.553 77.6742 56.5264 76.8899 53.8199 75.479V75.7144C53.8196 79.9353 55.3765 84.0264 58.2263 87.2934C61.0762 90.5604 65.0436 92.8021 69.4552 93.6381C66.5841 94.3668 63.574 94.4741 60.6523 93.952C61.897 97.5839 64.3215 100.76 67.5865 103.035C70.8515 105.311 74.7935 106.571 78.8607 106.641C71.9565 111.724 63.4299 114.481 54.6525 114.469C53.0977 114.47 51.5442 114.385 50 114.214C58.9095 119.587 69.2809 122.438 79.8732 122.427C115.729 122.427 135.331 94.5759 135.331 70.4212C135.331 69.6365 135.31 68.8439 135.272 68.0591C139.085 65.4733 142.376 62.2712 144.992 58.6029L145 58.5911Z" fill="url(#paint0_linear_26_11)"/>
</g>
<defs>
<filter id="filter0_f_26_11" x="0" y="0" width="195" height="172.427" filterUnits="userSpaceOnUse" color-interpolation-filters="sRGB">
<feFlood flood-opacity="0" result="BackgroundImageFix"/>
<feBlend mode="normal" in="SourceGraphic" in2="BackgroundImageFix" result="shape"/>
<feGaussianBlur stdDeviation="25" result="effect1_foregroundBlur_26_11"/>
</filter>
<linearGradient id="paint0_linear_26_11" x1="97.5" y1="50" x2="97.5" y2="122.427" gradientUnits="userSpaceOnUse">
<stop stop-color="#1DA1F2"/>
<stop offset="1" stop-color="#00FAFA"/>
</linearGradient>
</defs>
</svg>
