<svg width="40" height="40" viewBox="0 0 40 40" fill="none" xmlns="http://www.w3.org/2000/svg">
<rect width="40" height="40" rx="20" fill="#005DB9"/>
<mask id="mask0_614_4628" style="mask-type:alpha" maskUnits="userSpaceOnUse" x="8" y="8" width="24" height="24">
<rect x="8" y="8" width="24" height="24" fill="#D9D9D9"/>
</mask>
<g mask="url(#mask0_614_4628)">
<path d="M20 21.0543L14.9269 26.1274C14.7884 26.2658 14.6144 26.3367 14.4048 26.3399C14.1952 26.3431 14.018 26.2723 13.8731 26.1274C13.7282 25.9825 13.6558 25.8069 13.6558 25.6005C13.6558 25.3941 13.7282 25.2184 13.8731 25.0736L18.9462 20.0005L13.8731 14.9274C13.7346 14.7889 13.6638 14.6149 13.6606 14.4053C13.6574 14.1957 13.7282 14.0184 13.8731 13.8736C14.018 13.7287 14.1936 13.6562 14.4 13.6562C14.6064 13.6562 14.782 13.7287 14.9269 13.8736L20 18.9466L25.0731 13.8736C25.2115 13.7351 25.3856 13.6643 25.5952 13.6611C25.8048 13.6579 25.982 13.7287 26.1269 13.8736C26.2718 14.0184 26.3442 14.1941 26.3442 14.4005C26.3442 14.6069 26.2718 14.7825 26.1269 14.9274L21.0538 20.0005L26.1269 25.0736C26.2654 25.212 26.3362 25.3861 26.3394 25.5957C26.3426 25.8053 26.2718 25.9825 26.1269 26.1274C25.982 26.2723 25.8064 26.3447 25.6 26.3447C25.3936 26.3447 25.218 26.2723 25.0731 26.1274L20 21.0543Z" fill="white"/>
</g>
</svg>
