<svg width="24" height="25" viewBox="0 0 24 25" fill="none" xmlns="http://www.w3.org/2000/svg">
<mask id="mask0_1207_1557" style="mask-type:alpha" maskUnits="userSpaceOnUse" x="0" y="0" width="24" height="25">
<rect y="0.5" width="24" height="24" fill="#D9D9D9"/>
</mask>
<g mask="url(#mask0_1207_1557)">
<path d="M12 15.1619C11.8859 15.1619 11.7753 15.1427 11.6683 15.1042C11.5612 15.0657 11.4609 14.9997 11.3673 14.9061L6.85769 10.3965C6.71282 10.2517 6.64296 10.0786 6.64809 9.8773C6.65321 9.67602 6.72821 9.50294 6.87309 9.35807C7.01796 9.21321 7.19359 9.14078 7.39999 9.14078C7.60639 9.14078 7.78202 9.21321 7.92689 9.35807L12 13.4312L16.0885 9.3427C16.2333 9.19783 16.4064 9.12796 16.6077 9.13307C16.809 9.13821 16.982 9.21321 17.1269 9.35807C17.2718 9.50294 17.3442 9.67858 17.3442 9.885C17.3442 10.0914 17.2718 10.267 17.1269 10.4119L12.6327 14.9061C12.5391 14.9997 12.4404 15.0657 12.3365 15.1042C12.2327 15.1427 12.1205 15.1619 12 15.1619Z" fill="#072039"/>
</g>
</svg>
