<svg width="40" height="40" viewBox="0 0 40 40" fill="none" xmlns="http://www.w3.org/2000/svg">
<mask id="mask0_614_5112" style="mask-type:alpha" maskUnits="userSpaceOnUse" x="0" y="0" width="40" height="40">
<rect width="40" height="40" fill="#D9D9D9"/>
</mask>
<g mask="url(#mask0_614_5112)">
<path d="M13.125 29.1666C11.3066 29.1666 9.90331 28.4764 8.91509 27.0961C7.92684 25.7158 7.45514 24.0822 7.50001 22.1955V22.0512L6.6218 20.7018C6.18805 20.0266 5.67042 18.877 5.06892 17.2531C4.46742 15.6292 4.16667 13.767 4.16667 11.6666C4.16667 9.04057 4.79755 6.85629 6.0593 5.11379C7.32105 3.37126 8.91238 2.5 10.8333 2.5C12.8632 2.5 14.4818 3.43643 15.689 5.30929C16.8963 7.18213 17.4999 9.30124 17.4999 11.6666C17.4999 13.2029 17.275 14.6703 16.8252 16.0689C16.3754 17.4674 15.9625 18.61 15.5864 19.4968L16.1281 20.391C16.4038 20.8547 16.7013 21.4647 17.0208 22.2211C17.3402 22.9775 17.4999 23.7233 17.4999 24.4583C17.4999 25.8066 17.087 26.9283 16.2611 27.8236C15.4353 28.7189 14.3899 29.1666 13.125 29.1666ZM9.05446 19.8141L13.141 18.9135C13.5235 18.0246 13.9289 16.9279 14.3573 15.6234C14.7858 14.3189 15 13 15 11.6666C15 9.93585 14.61 8.39204 13.8301 7.03521C13.0502 5.67838 12.0512 4.99996 10.8333 4.99996C9.61535 4.99996 8.61642 5.67838 7.83651 7.03521C7.05659 8.39204 6.66663 9.93585 6.66663 11.6666C6.66663 13.3418 6.9177 14.9065 7.41984 16.3605C7.92198 17.8146 8.46685 18.9658 9.05446 19.8141ZM13.125 26.6666C13.6634 26.6666 14.1105 26.4668 14.4663 26.0673C14.8221 25.6677 15 25.1314 15 24.4583C15 23.9861 14.8808 23.4733 14.6426 22.9198C14.4043 22.3664 14.1207 21.8312 13.7916 21.314L9.99996 22.1794C9.99996 23.4615 10.2564 24.5299 10.7692 25.3846C11.282 26.2393 12.0673 26.6666 13.125 26.6666ZM26.875 37.4999C25.61 37.4999 24.5646 37.0522 23.7388 36.157C22.9129 35.2617 22.5 34.1399 22.5 32.7916C22.5 32.0566 22.6597 31.3109 22.9792 30.5545C23.2986 29.7981 23.5962 29.188 23.8718 28.7243L24.4135 27.8301C24.0481 26.954 23.6379 25.8141 23.1827 24.4102C22.7276 23.0063 22.5 21.5363 22.5 20C22.5 17.6346 23.1036 15.5155 24.3109 13.6426C25.5182 11.7698 27.1367 10.8333 29.1666 10.8333C31.0876 10.8333 32.6789 11.7046 33.9406 13.4471C35.2024 15.1896 35.8333 17.3739 35.8333 20C35.8333 22.1003 35.5352 23.9529 34.939 25.5576C34.3429 27.1623 33.8226 28.3129 33.3781 29.0095L32.4999 30.3845V30.5448C32.5277 32.3995 32.0491 34.0224 31.064 35.4134C30.079 36.8044 28.6826 37.4999 26.875 37.4999ZM30.8813 28.2436C31.5865 27.1389 32.1715 25.9252 32.6362 24.6025C33.1009 23.2799 33.3333 21.7457 33.3333 20C33.3333 18.2692 32.9433 16.7254 32.1634 15.3685C31.3835 14.0117 30.3846 13.3333 29.1666 13.3333C27.9487 13.3333 26.9498 14.0117 26.1698 15.3685C25.3899 16.7254 25 18.2692 25 20C25 21.3333 25.2169 22.6453 25.6506 23.9359C26.0844 25.2265 26.4872 26.3301 26.859 27.2468L30.8813 28.2436ZM26.875 35C27.9113 35 28.6912 34.5779 29.2147 33.7339C29.7382 32.8899 30 31.8536 30 30.625L26.2243 29.6313C25.9701 30.0843 25.7024 30.5902 25.4215 31.149C25.1405 31.7078 25 32.2553 25 32.7916C25 33.3579 25.1789 33.8675 25.5368 34.3205C25.8947 34.7735 26.3408 35 26.875 35Z" fill="#005DB9"/>
</g>
</svg>
