<svg width="48" height="30" viewBox="0 0 48 30" fill="none" xmlns="http://www.w3.org/2000/svg">
<path fill-rule="evenodd" clip-rule="evenodd" d="M0.361511 0H47.1169V30H0.361511V0Z" fill="white"/>
<path fill-rule="evenodd" clip-rule="evenodd" d="M29.2041 16.0543V1.46387H1.80927V12.7571L2.83835 10.4407H4.57597L5.15475 11.8082V10.4394H7.2778L7.92146 11.8069L8.54858 10.4394H16.0448C16.2134 10.4282 16.3821 10.4608 16.5343 10.5342C16.6866 10.6075 16.8172 10.7191 16.9136 10.8579V10.4394H18.4896V10.9381C18.615 10.7655 18.7834 10.6287 18.9779 10.5412C19.1725 10.4537 19.3866 10.4187 19.5989 10.4394H22.8006L23.3794 11.7751V10.4394H25.2773L25.9362 11.597V10.4394H27.6776V14.7186H25.809L25.0369 13.4466V14.7186H22.6721L22.302 13.8816H21.5464L21.1927 14.7186H19.7134C19.3915 14.6868 18.6512 14.5583 18.4909 14.0597V14.7186H15.6428V13.7697C15.6377 13.6944 15.6056 13.6235 15.5522 13.5702C15.4989 13.5169 15.428 13.4847 15.3528 13.4796H15.0475V14.7186H9.00016V13.7531L8.53332 14.7186H7.31088L6.84403 13.7379V14.7186H4.41569L4.09386 13.9465H3.32173L2.98337 14.7186H1.80927V28.5038H29.2041V20.0587C29.1086 20.1571 28.9931 20.234 28.8654 20.284C28.7377 20.3341 28.6007 20.3561 28.4638 20.3487H26.1741V20.0218C26.0699 20.1331 25.9421 20.2197 25.8002 20.2754C25.6583 20.331 25.5057 20.3543 25.3536 20.3436H18.9081V19.443C18.8916 19.3311 18.9565 19.0894 18.6347 19.0894H18.3612V20.3449H16.6566V18.9011C16.4798 19.1911 16.0931 19.2077 15.8361 19.2229H14.9355V20.3487H12.6458L11.9869 19.5435L11.2797 20.3487H7.3872V16.0543H11.3445L12.02 16.8429L12.7273 16.0543H15.8476C16.1502 16.0691 16.4367 16.1955 16.6515 16.4092V16.0543H19.3063C19.4767 16.0522 19.6454 16.0887 19.7996 16.1612C19.9538 16.2337 20.0896 16.3402 20.1967 16.4728V16.0543H23.5422V16.4359C23.6467 16.3027 23.783 16.1979 23.9386 16.1312C24.0942 16.0645 24.2641 16.038 24.4327 16.0543H26.5722V16.4244C26.6779 16.3074 26.8071 16.2139 26.9513 16.1501C27.0955 16.0863 27.2516 16.0537 27.4092 16.0543H29.2041Z" fill="#00ACEC"/>
<path fill-rule="evenodd" clip-rule="evenodd" d="M46.0305 18.6602L36.153 28.5045H37.5523L46.0292 20.0594L46.0305 18.6602Z" fill="#33348E"/>
<path fill-rule="evenodd" clip-rule="evenodd" d="M46.0306 21.4111L38.9199 28.5053H40.3191L46.0306 22.8104V21.4111Z" fill="#00ACEC"/>
<path fill-rule="evenodd" clip-rule="evenodd" d="M46.0306 24.1611L41.6713 28.5039H43.0871L46.0306 25.5604V24.1611Z" fill="#33A457"/>
<path fill-rule="evenodd" clip-rule="evenodd" d="M24.0242 0H0.361511V29.9975H47.6385V0H24.0242ZM47.1398 29.4696H0.908492V0.546981H47.1398V29.4696Z" fill="#00ACEC"/>
<path fill-rule="evenodd" clip-rule="evenodd" d="M31.7775 25.9795C31.5324 25.9792 31.2928 26.0517 31.0889 26.1877C30.8849 26.3237 30.7259 26.5171 30.632 26.7434C30.538 26.9698 30.5133 27.219 30.5609 27.4594C30.6086 27.6998 30.7265 27.9207 30.8997 28.0941C31.0729 28.2675 31.2937 28.3856 31.5341 28.4335C31.7745 28.4814 32.0236 28.457 32.2501 28.3632C32.4766 28.2695 32.6701 28.1107 32.8063 27.9069C32.9425 27.7032 33.0152 27.4636 33.0152 27.2185C33.0142 26.8904 32.8836 26.576 32.6517 26.3439C32.4198 26.1118 32.1056 25.9808 31.7775 25.9795ZM31.7775 28.3124C31.4883 28.3094 31.2118 28.1932 31.0073 27.9887C30.8028 27.7842 30.6866 27.5077 30.6836 27.2185C30.6851 27.0043 30.7499 26.7953 30.8698 26.6178C30.9898 26.4404 31.1595 26.3023 31.3577 26.221C31.5559 26.1398 31.7737 26.1189 31.9837 26.161C32.1937 26.2032 32.3866 26.3065 32.538 26.458C32.6895 26.6094 32.7928 26.8023 32.835 27.0123C32.8771 27.2223 32.8563 27.4401 32.775 27.6383C32.6937 27.8365 32.5557 28.0062 32.3782 28.1262C32.2007 28.2461 31.9917 28.3109 31.7775 28.3124Z" fill="#00ACEC"/>
<path fill-rule="evenodd" clip-rule="evenodd" d="M32.4057 26.8796C32.4072 26.8231 32.3947 26.7671 32.3694 26.7165C32.3441 26.6659 32.3068 26.6223 32.2607 26.5896C32.1559 26.5377 32.0388 26.5157 31.9223 26.526H31.3117V27.91H31.4886V27.2663H31.7939L32.1958 27.91H32.3904L31.9719 27.2663C32.2124 27.265 32.4057 27.1531 32.4057 26.8796ZM31.7786 27.134H31.4886V26.6354H31.8702C32.047 26.6354 32.2403 26.6672 32.2403 26.8771C32.2442 27.1531 31.9707 27.1366 31.7786 27.1366V27.134ZM7.90732 13.1415L6.9253 10.9319H5.65325V14.0853L4.23873 10.9319H3.17657L1.74551 14.2138H2.59779L2.90308 13.4735H4.51222L4.83405 14.2138H6.45845V11.7753L7.53588 14.2202H8.27621L9.36636 11.8224V14.2189H10.1703V10.9319H8.88807L7.90605 13.1351L7.90732 13.1415ZM3.70956 12.7713H3.22491L3.70701 11.6265V11.6583L4.20566 12.7675H3.70829L3.70956 12.7713ZM16.8842 11.8058C16.8862 11.6828 16.8618 11.5607 16.8126 11.4478C16.7634 11.335 16.6906 11.234 16.5992 11.1517C16.5077 11.0694 16.3996 11.0076 16.2822 10.9706C16.1648 10.9335 16.0409 10.9221 15.9187 10.937H13.8262V14.2189H14.6301V13.0613H15.6757C15.9657 13.0613 16.0777 13.3348 16.0777 13.6083L16.0942 14.2202H16.8829L16.8511 13.5447C16.8511 13.0143 16.7061 12.7726 16.3423 12.7242C16.5189 12.6491 16.667 12.5197 16.7653 12.3549C16.8636 12.19 16.907 11.9982 16.8893 11.8071L16.8842 11.8058ZM15.6299 12.3846H14.6326V11.6443H15.6299C15.9683 11.6443 16.0802 11.8529 16.0802 12.0144C16.0777 12.2409 15.9657 12.3859 15.6274 12.3859L15.6299 12.3846ZM17.3027 14.2189H18.1066V10.9319H17.3027V14.2189ZM26.408 10.937V13.2051L25.038 10.9319H23.8474V14.0103L22.4685 10.9319H21.4063L20.2971 13.476C20.2971 13.476 19.8951 13.476 19.8468 13.4595C19.5924 13.4277 19.2833 13.1695 19.2833 12.5907C19.2833 11.8185 19.7018 11.6417 20.2322 11.6417H20.7308V10.9319H19.6852C19.3151 10.9319 18.5111 11.2054 18.4946 12.5563C18.4628 13.457 18.8647 14.21 19.7666 14.21H20.8288L21.1341 13.4697H22.7432L23.0651 14.21H24.6577V11.8224L26.1052 14.2189H27.2157V10.9319H26.4105L26.408 10.937ZM21.9558 12.7713H21.4508L21.9329 11.6265L21.9495 11.6583L22.4316 12.7675H21.9495L21.9558 12.7713ZM10.7275 14.2189H13.3657V13.5269H11.5288V12.8833H13.3097V12.2561H11.5288V11.6455H13.3631V10.9319H10.7211L10.7275 14.2189ZM25.2466 17.8392C25.1983 17.8392 24.748 17.8239 24.6844 17.8239C24.491 17.8074 24.346 17.759 24.346 17.5695C24.346 17.2476 24.6526 17.2795 24.9413 17.2795H26.1803V16.5722H24.4745C24.348 16.5656 24.2216 16.5857 24.1034 16.6311C23.9852 16.6765 23.8778 16.7463 23.7883 16.8359C23.6989 16.9255 23.6292 17.033 23.5839 17.1512C23.5387 17.2695 23.5188 17.396 23.5255 17.5224C23.5255 18.0681 23.7341 18.5197 24.6195 18.5401C24.6844 18.5401 25.0698 18.5553 25.183 18.5719C25.4247 18.6037 25.473 18.6991 25.473 18.8454C25.473 19.1672 25.1512 19.1672 24.9261 19.1672H23.6069V19.8592H25.2962C25.4261 19.8706 25.557 19.855 25.6805 19.8135C25.8041 19.7719 25.9178 19.7053 26.0144 19.6177C26.111 19.5302 26.1885 19.4236 26.242 19.3047C26.2955 19.1858 26.3239 19.0571 26.3253 18.9268C26.3253 18.395 26.2452 17.8977 25.2479 17.8493L25.2466 17.8392ZM28.2715 17.8392C28.2232 17.8392 27.7729 17.8239 27.708 17.8239C27.5147 17.8074 27.3709 17.759 27.3709 17.5695C27.3709 17.2476 27.6762 17.2795 27.9497 17.2795H29.1887V16.5722H27.4981C27.3706 16.564 27.2427 16.5828 27.123 16.6274C27.0032 16.6721 26.8942 16.7416 26.8032 16.8313C26.7121 16.921 26.6411 17.029 26.5947 17.1481C26.5483 17.2672 26.5276 17.3948 26.5339 17.5224C26.5339 18.0681 26.7425 18.5197 27.6444 18.5401C27.708 18.5401 28.0947 18.5553 28.2067 18.5719C28.4318 18.6037 28.4967 18.6991 28.4967 18.8454C28.4967 19.1672 28.1596 19.1672 27.9332 19.1672H26.6141V19.8592H28.3199C28.4498 19.8706 28.5806 19.855 28.7042 19.8135C28.8278 19.7719 28.9415 19.7053 29.0381 19.6177C29.1347 19.5302 29.2122 19.4236 29.2657 19.3047C29.3192 19.1858 29.3475 19.0571 29.349 18.9268C29.349 18.3861 29.2688 17.8875 28.2715 17.8392ZM15.7571 16.5671H12.9281L12.0109 17.5847L11.1103 16.5671H7.93021V19.8363H11.0188L11.9842 18.7589L12.9332 19.8528H14.4775V18.7423H15.5549C15.9734 18.7423 16.7455 18.727 16.7455 17.5682C16.7579 17.4356 16.7413 17.3018 16.6966 17.1763C16.652 17.0508 16.5804 16.9365 16.487 16.8415C16.3936 16.7466 16.2806 16.6731 16.1558 16.6264C16.0311 16.5796 15.8976 16.5607 15.7648 16.5709L15.7571 16.5671ZM10.5773 19.157H8.74305V18.4981H10.5112V17.8862H8.74305V17.2744H10.5773L11.478 18.1648L10.5773 19.1621V19.157ZM13.6659 19.5272L13.0871 18.8517L12.5083 18.1597L13.0871 17.5326L13.6659 16.8889V19.5272ZM15.4722 18.0643H14.4749V17.2756H15.4722C15.8093 17.2756 15.9225 17.4843 15.9225 17.6458C15.9174 17.871 15.8042 18.0643 15.4722 18.0643ZM20.1851 17.4537C20.1886 17.3293 20.1654 17.2056 20.117 17.091C20.0687 16.9763 19.9963 16.8733 19.9049 16.789C19.8134 16.7046 19.7049 16.6408 19.5867 16.6019C19.4685 16.563 19.3434 16.5498 19.2196 16.5633H17.108V19.8452H17.912V18.6914H18.9741C19.2476 18.6914 19.3558 18.9649 19.3761 19.2537L19.3926 19.849H20.1813L20.1495 19.1735C20.1495 18.6431 20.0045 18.4014 19.6191 18.3531C19.7985 18.2852 19.9508 18.1604 20.0526 17.9977C20.1543 17.835 20.2 17.6435 20.1826 17.4525L20.1851 17.4537ZM18.9296 18.0172H17.912V17.2769H18.9296C19.268 17.2769 19.3799 17.4855 19.3799 17.6471C19.3761 17.871 19.2476 18.016 18.9258 18.016L18.9296 18.0172ZM20.5833 19.835H23.205V19.1595H21.3859V18.5006H23.1554V17.8888H21.3859V17.2769H23.2037V16.5697H20.582L20.5833 19.835ZM32.6448 16.8737C31.9694 16.8737 31.8396 16.3432 31.8396 15.7797C31.8396 15.0076 32.1297 14.6056 32.58 14.6056C32.6715 14.5979 32.7637 14.6092 32.8507 14.6387C32.9377 14.6682 33.0176 14.7154 33.0856 14.7772C33.1535 14.8391 33.2079 14.9143 33.2455 14.9981C33.283 15.082 33.3029 15.1727 33.3038 15.2645H34.558C34.5425 15.02 34.4764 14.7813 34.364 14.5636C34.2516 14.3458 34.0952 14.1538 33.9047 13.9996C33.7143 13.8454 33.494 13.7323 33.2576 13.6676C33.0213 13.6029 32.7741 13.5879 32.5316 13.6236C31.9772 13.6499 31.4553 13.8928 31.0783 14.3002C30.7013 14.7076 30.4994 15.2467 30.5161 15.8015C30.5328 16.3563 30.7667 16.8824 31.1675 17.2663C31.5683 17.6503 32.1038 17.8615 32.6588 17.8544C33.1338 17.8895 33.6034 17.7354 33.9652 17.4256C34.3269 17.1158 34.5515 16.6755 34.5898 16.2008H33.3178C33.3183 16.2893 33.3012 16.377 33.2676 16.4589C33.2339 16.5407 33.1844 16.6151 33.1218 16.6777C33.0592 16.7403 32.9848 16.7898 32.903 16.8235C32.8211 16.8571 32.7334 16.8742 32.6448 16.8737ZM37.9048 15.9565C37.9048 15.2645 37.8234 14.7506 36.4241 14.7506H36.2626C35.2335 14.7824 34.8315 15.1322 34.8315 15.7326H35.9407C35.9472 15.6537 35.9847 15.5806 36.0451 15.5293C36.1054 15.4781 36.1836 15.4528 36.2626 15.4592C36.2931 15.4465 36.3263 15.4412 36.3592 15.4439C36.4712 15.4439 36.7408 15.4757 36.7408 15.6856C36.7408 15.8624 36.5322 15.9107 36.2587 15.9591C35.6482 16.0557 34.6509 16.0392 34.6509 16.9564C34.6509 17.5669 35.133 17.8468 35.6965 17.8468C35.8864 17.8515 36.076 17.8301 36.26 17.7832C36.4604 17.7198 36.6427 17.6095 36.7917 17.4614L36.9189 17.7666H37.9646C37.9151 17.6276 37.8935 17.4802 37.901 17.3329V15.9565H37.9048ZM36.2638 17.179H36.1672C35.9255 17.179 35.797 17.0823 35.797 16.9373C35.797 16.6956 36.0056 16.6472 36.2638 16.6002C36.4285 16.5746 36.5901 16.532 36.7459 16.473C36.7485 16.9703 36.6035 17.1472 36.2664 17.1802L36.2638 17.179ZM39.2074 15.4248V14.8295H38.1452V17.7552H39.304V16.5976C39.304 15.9705 39.5444 15.7454 40.0278 15.7454H40.2695V14.7646C40.2168 14.7511 40.1623 14.7455 40.108 14.7481C39.9024 14.7367 39.6994 14.7982 39.5346 14.9218C39.3699 15.0453 39.254 15.2243 39.2074 15.4248ZM42.4727 13.7355V15.1195C42.3476 14.9736 42.1867 14.8627 42.0059 14.7977C41.8691 14.7629 41.7284 14.7467 41.5874 14.7494C40.8954 14.7494 40.3497 15.3765 40.3497 16.342C40.3258 16.5304 40.3427 16.7218 40.399 16.9032C40.4554 17.0846 40.55 17.2518 40.6765 17.3935C40.8029 17.5353 40.9583 17.6483 41.1321 17.725C41.3059 17.8016 41.4941 17.8401 41.684 17.8379C41.7923 17.844 41.9009 17.8333 42.0059 17.8061C42.2419 17.7303 42.4457 17.5776 42.5846 17.3723V17.7539H43.6303V13.7368L42.4727 13.7355ZM42.0059 17.0009H41.9728C41.5912 17.0009 41.5225 16.6472 41.5225 16.342C41.5225 16.0367 41.6192 15.65 42.0046 15.65C42.39 15.65 42.5032 16.0036 42.5032 16.3254C42.5032 16.6472 42.3951 16.9869 42.0097 17.0021L42.0059 17.0009Z" fill="#00ACEC"/>
</svg>
