<svg width="71" height="30" viewBox="0 0 71 30" fill="none" xmlns="http://www.w3.org/2000/svg">
<path fill-rule="evenodd" clip-rule="evenodd" d="M15.5722 4.81152H55.1092V25.721H15.5722V4.81152Z" fill="white"/>
<path fill-rule="evenodd" clip-rule="evenodd" d="M35.5002 26.1176C37.0423 24.7054 38.2738 22.9877 39.1162 21.0739C39.9587 19.16 40.3938 17.0918 40.3938 15.0008C40.3938 12.9097 39.9587 10.8415 39.1162 8.92764C38.2738 7.01379 37.0423 5.29615 35.5002 3.88392C32.7724 1.38323 29.2055 -0.00277676 25.5048 4.17673e-06C21.5492 0.0343746 17.7673 1.62985 14.9823 4.43913C12.1974 7.2484 10.6348 11.044 10.6348 14.9998C10.6348 18.9556 12.1974 22.7512 14.9823 25.5605C17.7673 28.3698 21.5492 29.9653 25.5048 29.9996C29.2052 30.003 32.7721 28.6177 35.5002 26.1176Z" fill="#3A9BD9"/>
<path fill-rule="evenodd" clip-rule="evenodd" d="M45.4952 5.56166e-06C41.7949 -0.00320333 38.2281 1.38226 35.5002 3.88241C34.9614 4.37474 34.4591 4.90549 33.9971 5.47047H37.0037C37.4163 5.97481 37.7957 6.5054 38.1395 7.05892H32.8616C32.544 7.57077 32.2573 8.1012 32.0032 8.64736H38.9953C39.236 9.16426 39.447 9.69448 39.6272 10.2354H31.3728C31.1997 10.7565 31.0555 11.2866 30.9406 11.8235H40.0613C40.6243 14.462 40.4745 17.2028 39.6272 19.7642H31.3728C31.5523 20.3053 31.7628 20.8357 32.0032 21.3526H38.9953C38.7417 21.8988 38.4554 22.4293 38.138 22.9411H32.8616C33.2051 23.4946 33.5841 24.0252 33.9963 24.5295H37.0037C36.5423 25.0948 36.0403 25.6257 35.5017 26.118C38.2296 28.6181 41.7964 30.0036 45.4967 30.0004C49.4565 29.9723 53.2445 28.3796 56.0347 25.5696C58.8248 22.7596 60.3906 18.9603 60.3906 15.0004C60.3906 11.0405 58.8248 7.2412 56.0347 4.4312C53.2445 1.62121 49.4565 0.0284756 45.4967 0.000382836L45.4952 5.56166e-06Z" fill="#CC2131"/>
<path fill-rule="evenodd" clip-rule="evenodd" d="M58.4016 23.3613C58.4023 23.2664 58.4311 23.1737 58.4843 23.0951C58.5375 23.0165 58.6129 22.9554 58.7008 22.9195C58.7887 22.8836 58.8853 22.8745 58.9783 22.8934C59.0714 22.9123 59.1567 22.9584 59.2237 23.0257C59.2906 23.0931 59.3361 23.1787 59.3544 23.2719C59.3727 23.3651 59.3631 23.4616 59.3266 23.5493C59.2902 23.6369 59.2286 23.7119 59.1497 23.7646C59.0707 23.8174 58.9779 23.8455 58.8829 23.8456C58.8195 23.8454 58.7568 23.8327 58.6983 23.8083C58.6398 23.7838 58.5867 23.7481 58.542 23.7031C58.4973 23.6582 58.4619 23.6048 58.4378 23.5462C58.4137 23.4875 58.4014 23.4247 58.4016 23.3613ZM58.8826 23.729C58.9554 23.7294 59.0268 23.7082 59.0876 23.668C59.1485 23.6279 59.196 23.5706 59.2242 23.5033C59.2524 23.4361 59.26 23.3621 59.2461 23.2905C59.2321 23.219 59.1973 23.1532 59.1459 23.1015C59.0945 23.0498 59.0289 23.0145 58.9575 23.0001C58.886 22.9857 58.8119 22.9929 58.7445 23.0207C58.6771 23.0485 58.6195 23.0956 58.579 23.1562C58.5384 23.2168 58.5168 23.288 58.5168 23.3609C58.5165 23.4091 58.5258 23.4569 58.5441 23.5015C58.5623 23.5462 58.5892 23.5867 58.6232 23.6209C58.6572 23.6551 58.6976 23.6823 58.7421 23.7008C58.7866 23.7193 58.8343 23.7289 58.8826 23.729ZM58.8176 23.5734H58.7191V23.1473H58.898C58.9353 23.144 58.9726 23.1516 59.0056 23.1692C59.0226 23.1812 59.0364 23.1971 59.0458 23.2157C59.0552 23.2342 59.06 23.2548 59.0596 23.2756C59.06 23.2992 59.0532 23.3224 59.0401 23.3421C59.027 23.3618 59.0083 23.377 58.9864 23.3858L59.0641 23.5746H58.9547L58.8905 23.4062H58.8184V23.3337H58.8727C58.8932 23.3359 58.9138 23.3329 58.9328 23.3251C58.9407 23.3196 58.9471 23.3123 58.9514 23.3037C58.9558 23.2951 58.9579 23.2856 58.9577 23.276C58.9574 23.2675 58.9551 23.2591 58.9509 23.2516C58.9468 23.2442 58.941 23.2378 58.9339 23.233C58.9137 23.2253 58.8919 23.2227 58.8705 23.2254H58.8188V23.575L58.8176 23.5734Z" fill="#CC2131"/>
<path fill-rule="evenodd" clip-rule="evenodd" d="M55.2531 18.2527C55.2538 18.1579 55.2826 18.0653 55.3359 17.9868C55.3891 17.9083 55.4644 17.8473 55.5523 17.8115C55.6402 17.7757 55.7367 17.7667 55.8296 17.7857C55.9226 17.8046 56.0079 17.8507 56.0747 17.9181C56.1415 17.9854 56.1869 18.071 56.2052 18.1641C56.2234 18.2573 56.2137 18.3537 56.1772 18.4413C56.1407 18.5289 56.0791 18.6037 56.0002 18.6563C55.9212 18.709 55.8285 18.7371 55.7336 18.7371C55.6057 18.7365 55.4832 18.6851 55.3931 18.5943C55.303 18.5035 55.2527 18.3807 55.2531 18.2527ZM55.7336 18.6204C55.8065 18.6209 55.8779 18.5998 55.9388 18.5597C55.9997 18.5196 56.0472 18.4623 56.0755 18.3951C56.1038 18.3278 56.1114 18.2538 56.0975 18.1822C56.0836 18.1106 56.0488 18.0448 55.9974 17.9931C55.9461 17.9413 55.8805 17.906 55.809 17.8916C55.7376 17.8772 55.6634 17.8843 55.596 17.9121C55.5286 17.9399 55.471 17.987 55.4304 18.0476C55.3899 18.1082 55.3682 18.1795 55.3682 18.2524C55.3682 18.3493 55.4066 18.4423 55.475 18.511C55.5434 18.5797 55.6363 18.6185 55.7332 18.6189L55.7336 18.6204ZM55.6687 18.4649H55.5702V18.0391H55.7491C55.7863 18.0356 55.8238 18.0432 55.8567 18.061C55.8736 18.0729 55.8874 18.0887 55.8968 18.1071C55.9062 18.1255 55.9109 18.146 55.9106 18.1667C55.9111 18.1903 55.9044 18.2136 55.8913 18.2333C55.8782 18.253 55.8594 18.2682 55.8374 18.2769L55.9152 18.4656H55.8061L55.7411 18.2973H55.6691V18.2248H55.7234C55.7438 18.2272 55.7644 18.2243 55.7834 18.2165C55.7913 18.211 55.7976 18.2036 55.802 18.1951C55.8063 18.1865 55.8085 18.177 55.8083 18.1674C55.8082 18.1588 55.806 18.1502 55.8018 18.1426C55.7977 18.135 55.7918 18.1285 55.7846 18.1236C55.7645 18.1163 55.7431 18.1137 55.7219 18.1161H55.6694V18.4656L55.6687 18.4649ZM23.645 18.7367H21.7919L22.8931 12.8895L20.3575 18.7355H18.6679L18.3591 12.9223L17.2542 18.7355H15.5722L17.0096 11.1308H19.9011L20.054 15.8369L22.0924 11.1289H25.1055L23.6446 18.7337L23.645 18.7367ZM44.3544 18.6612C43.9222 18.7906 43.4738 18.8581 43.0227 18.8616C42.0744 18.8616 41.5569 18.3826 41.5569 17.5027C41.5585 17.3165 41.5767 17.1308 41.6112 16.9478L41.7245 16.3438L41.8113 15.8531L42.6705 11.1304H44.5133L44.2461 12.5505H45.1917L44.9376 14.054H43.9879L43.4994 16.6345C43.4813 16.7188 43.4707 16.8046 43.4677 16.8908C43.4677 17.2101 43.6595 17.3491 44.1 17.3491C44.2685 17.3542 44.4369 17.3347 44.5998 17.2913L44.3544 18.6593V18.6612ZM49.7667 12.6034C49.6995 12.5733 49.6291 12.5508 49.5569 12.5365C49.4587 12.5146 49.4059 12.5018 49.3972 12.4988C49.3356 12.488 49.2732 12.4828 49.2107 12.4833C48.6022 12.4833 48.1636 12.7562 47.5966 13.4874L47.7601 12.5501H46.0818L44.9531 18.7352H46.8077C47.4713 14.9528 47.7551 14.2903 48.6449 14.2903C48.7232 14.2912 48.8015 14.2965 48.8793 14.3062L49.096 14.3507L49.7667 12.6034ZM37.0079 14.5066C37.0079 15.288 37.445 15.8278 38.4355 16.2306C39.1946 16.5412 39.312 16.6322 39.312 16.9131C39.312 17.2981 38.9772 17.4717 38.2358 17.4717C37.667 17.4705 37.1012 17.3881 36.5556 17.2271L36.2986 18.6536L36.3816 18.6676L36.7251 18.731C36.8357 18.7503 36.9988 18.7688 37.2158 18.785C37.6617 18.8197 38.0086 18.8363 38.2498 18.8363C40.2278 18.8363 41.1417 18.1833 41.1417 16.7726C41.1417 15.9237 40.7596 15.4262 39.8205 15.0513C39.0346 14.7384 38.9436 14.6689 38.9436 14.3802C38.9436 14.0468 39.2554 13.8755 39.8612 13.8755C40.3117 13.8811 40.7615 13.9121 41.2085 13.9683L41.4757 12.5365C40.9286 12.4652 40.3778 12.4247 39.8261 12.4154C37.7281 12.4139 37.0022 13.364 37.0086 14.5047L37.0079 14.5066ZM29.6692 18.7352H28.1291L28.1669 18.0934C27.9167 18.3519 27.6132 18.5527 27.2776 18.6819C26.9419 18.8112 26.5821 18.8656 26.2232 18.8416C25.9981 18.8534 25.773 18.8178 25.5625 18.7372C25.3519 18.6565 25.1607 18.5326 25.0011 18.3733C24.8415 18.2141 24.7171 18.0232 24.6359 17.8129C24.5547 17.6026 24.5186 17.3775 24.5298 17.1524C24.5298 15.6459 25.7272 14.7675 27.7852 14.7675C28.0375 14.7699 28.2895 14.7858 28.5402 14.815C28.5848 14.6856 28.6095 14.5502 28.6134 14.4134C28.6134 14.0038 28.2903 13.8509 27.4247 13.8509C26.9065 13.8496 26.3897 13.9075 25.8846 14.0234L25.6279 14.0891L25.4618 14.1291L25.7189 12.7385C26.4402 12.5294 27.1864 12.4189 27.9373 12.4101C29.5299 12.4101 30.3717 13.0386 30.3717 14.2243C30.361 14.6366 30.3104 15.0469 30.2207 15.4496L29.8334 17.6435L29.7681 18.0372L29.7209 18.3516L29.6892 18.5668L29.6707 18.7348L29.6692 18.7352ZM28.3175 15.9795C28.1797 15.9624 28.041 15.9538 27.9022 15.9539C26.8521 15.9539 26.3198 16.2702 26.3198 16.8949C26.3158 16.9818 26.3305 17.0686 26.3629 17.1493C26.3954 17.23 26.4449 17.3028 26.508 17.3627C26.5711 17.4226 26.6464 17.4682 26.7287 17.4964C26.811 17.5246 26.8984 17.5347 26.985 17.5261C27.7399 17.5261 28.2854 16.8938 28.3171 15.9799L28.3175 15.9795ZM35.7486 18.6015C35.1297 18.7696 34.4911 18.854 33.8498 18.8526C31.7782 18.8526 30.6982 17.9009 30.6982 16.0818C30.6982 13.9589 32.0719 12.3957 33.9367 12.3957C35.4624 12.3957 36.4363 13.2711 36.4363 14.644C36.428 15.1607 36.3519 15.6741 36.2099 16.1709H32.5241C32.5129 16.235 32.507 16.2999 32.5064 16.365C32.5064 17.0822 33.0556 17.4476 34.1318 17.4476C34.7934 17.4481 35.4482 17.315 36.057 17.0561L35.7486 18.6015ZM34.7611 14.9218C34.7712 14.793 34.7763 14.6878 34.7766 14.6063C34.7819 14.4932 34.7623 14.3804 34.7189 14.2758C34.6756 14.1712 34.6097 14.0775 34.526 14.0014C34.4422 13.9252 34.3427 13.8686 34.2345 13.8354C34.1263 13.8022 34.0121 13.7933 33.9 13.8094C33.3104 13.8094 32.8888 14.2046 32.7178 14.9181L34.7611 14.9218ZM55.5267 15.9312C55.2493 17.9885 53.8232 18.9009 51.9275 18.9009C49.8309 18.9009 48.9831 17.6197 48.9831 16.0501C48.9831 13.8581 50.4175 12.3731 52.6322 12.3731C54.5547 12.3731 55.5766 13.5942 55.5766 15.1646C55.5852 15.4211 55.5683 15.6779 55.5267 15.9312ZM53.6182 15.1385C53.6182 14.4915 53.3574 13.8807 52.599 13.8807C51.6534 13.8807 51.0672 15.0068 51.0672 16.0011C51.0672 16.8395 51.4688 17.403 52.1313 17.391C52.5329 17.391 53.3894 16.8398 53.5589 15.8769C53.6003 15.6333 53.6204 15.3867 53.6189 15.1397L53.6182 15.1385Z" fill="white"/>
</svg>
