<svg width="61" height="30" viewBox="0 0 61 30" fill="none" xmlns="http://www.w3.org/2000/svg">
<path d="M56.65 2.40039H3.85C1.86177 2.40039 0.25 4.01217 0.25 6.00039V24.0004C0.25 25.9886 1.86177 27.6004 3.85 27.6004H56.65C58.6382 27.6004 60.25 25.9886 60.25 24.0004V6.00039C60.25 4.01217 58.6382 2.40039 56.65 2.40039Z" fill="white"/>
<path d="M25.0252 23.0761H20.8252L23.452 6.93373H27.652L25.0252 23.0761ZM17.2864 6.93373L13.2796 18.0361L12.7996 15.6457L11.386 8.38573C11.3013 7.93525 11.0478 7.53407 10.6775 7.26403C10.3071 6.99399 9.84761 6.87543 9.3928 6.93253H2.7688L2.6908 7.20613C4.24131 7.59429 5.72355 8.21664 7.0864 9.05173L10.738 23.0761H15.1168L21.8032 6.93373H17.2864ZM50.3428 23.0761H54.202L50.842 6.93373H47.4592C47.0502 6.90168 46.6417 7.00072 46.2928 7.21648C45.9439 7.43224 45.6728 7.75352 45.5188 8.13373L39.2512 23.0737H43.6324L44.5084 20.6737H49.8508L50.3428 23.0761ZM45.718 17.3665L47.926 11.3257L49.168 17.3665H45.718ZM39.5788 10.8157L40.1788 7.34893C38.9643 6.91466 37.6882 6.67688 36.3988 6.64453C34.3132 6.64453 29.3608 7.55653 29.3608 11.9881C29.3608 16.1581 35.1736 16.2097 35.1736 18.4009C35.1736 20.5921 29.9596 20.2009 28.2388 18.8173L27.6136 22.4413C29.1148 23.0698 30.73 23.3803 32.3572 23.3533C35.2252 23.3533 39.5572 21.8689 39.5572 17.8261C39.5572 13.6261 33.6916 13.2385 33.6916 11.4133C33.6916 9.58813 37.7848 9.82213 39.5836 10.8133L39.5788 10.8157Z" fill="#2566AF"/>
</svg>
