<svg width="71" height="30" viewBox="0 0 71 30" fill="none" xmlns="http://www.w3.org/2000/svg">
<path fill-rule="evenodd" clip-rule="evenodd" d="M35.7629 26.1112C38.486 28.6172 42.0531 30.0057 45.7538 30C49.7321 30 53.5474 28.4197 56.3604 25.6066C59.1735 22.7936 60.7538 18.9783 60.7538 15C60.7538 11.0218 59.1735 7.20647 56.3604 4.39343C53.5474 1.58038 49.7321 2.60938e-05 45.7538 2.59752e-05C42.0536 -0.00692135 38.4866 1.37996 35.7629 3.88452C34.2136 5.29143 32.9756 7.00677 32.1285 8.92041C31.2813 10.834 30.8437 12.9037 30.8437 14.9965C30.8437 17.0892 31.2813 19.1589 32.1285 21.0725C32.9756 22.9861 34.2136 24.7015 35.7629 26.1084V26.1112Z" fill="#E9B040"/>
<path fill-rule="evenodd" clip-rule="evenodd" d="M58.6821 23.3557C58.6819 23.2947 58.6938 23.2344 58.717 23.178C58.7402 23.1217 58.7743 23.0705 58.8174 23.0275C58.8605 22.9844 58.9117 22.9502 58.968 22.927C59.0243 22.9038 59.0847 22.8919 59.1456 22.8921C59.2085 22.8892 59.2713 22.899 59.3303 22.921C59.3893 22.9429 59.4432 22.9765 59.4889 23.0198C59.5346 23.0631 59.571 23.1151 59.5961 23.1728C59.6212 23.2306 59.6344 23.2927 59.635 23.3557C59.6371 23.4205 59.626 23.4851 59.6022 23.5455C59.5784 23.6058 59.5424 23.6607 59.4965 23.7065C59.4506 23.7524 59.3958 23.7884 59.3354 23.8122C59.2751 23.836 59.2105 23.8472 59.1456 23.845C59.0827 23.8445 59.0205 23.8313 58.9628 23.8062C58.9051 23.7811 58.8531 23.7446 58.8098 23.6989C58.7665 23.6532 58.7329 23.5993 58.711 23.5403C58.689 23.4813 58.6792 23.4185 58.6821 23.3557ZM59.1456 23.742C59.2473 23.7394 59.3441 23.6979 59.416 23.626C59.4879 23.5541 59.5294 23.4573 59.5319 23.3557C59.5303 23.3066 59.519 23.2584 59.4986 23.2137C59.4783 23.169 59.4494 23.1288 59.4135 23.0953C59.3776 23.0618 59.3355 23.0357 59.2896 23.0186C59.2436 23.0014 59.1947 22.9934 59.1456 22.9951C59.0506 22.9969 58.9599 23.0355 58.8927 23.1027C58.8255 23.17 58.7869 23.2606 58.7851 23.3557C58.7862 23.4534 58.8238 23.5472 58.8905 23.6187C58.9572 23.6902 59.0482 23.7341 59.1456 23.742ZM59.0941 23.5874H58.9911V23.1496H59.1714C59.2077 23.1457 59.2442 23.1548 59.2744 23.1754C59.3259 23.2011 59.3259 23.2269 59.3259 23.2784C59.3259 23.3299 59.3002 23.3814 59.2486 23.3814L59.3517 23.5874H59.2229L59.1714 23.4072H59.0941V23.3299H59.1971C59.2229 23.3299 59.2229 23.3042 59.2229 23.2784C59.2229 23.2527 59.2229 23.2526 59.1971 23.2269H59.0941V23.5874Z" fill="#E9B040"/>
<path fill-rule="evenodd" clip-rule="evenodd" d="M40.5788 13.4158C40.5273 12.875 40.4243 12.3599 40.3213 11.8191H31.2045C31.3146 11.2877 31.4521 10.7624 31.6166 10.2453H39.8834C39.7041 9.70351 39.4981 9.17127 39.2654 8.64857H32.2547C32.5122 8.10298 32.7955 7.57074 33.1045 7.05185H38.384C38.0444 6.50084 37.6657 5.97489 37.2509 5.47803H34.2434C34.7115 4.90957 35.2213 4.3768 35.7686 3.88417C33.6171 1.93324 30.9455 0.648871 28.0781 0.186996C25.2107 -0.27488 22.2709 0.105602 19.6156 1.28225C16.9603 2.4589 14.7037 4.3811 13.1197 6.8155C11.5358 9.24989 10.6926 12.0918 10.6926 14.9961C10.6926 17.9004 11.5358 20.7423 13.1197 23.1767C14.7037 25.6111 16.9603 27.5333 19.6156 28.71C22.2709 29.8866 25.2107 30.2671 28.0781 29.8052C30.9455 29.3433 33.6171 28.059 35.7686 26.108C36.3057 25.6221 36.8051 25.0959 37.2623 24.5342H34.2434C33.8366 24.0232 33.4583 23.4902 33.1103 22.9375H38.3897C38.7217 22.4282 39.0144 21.8945 39.2654 21.3408H32.2547C32.0136 20.8274 31.7987 20.3021 31.6108 19.7669H39.8777C40.051 19.2426 40.1972 18.7096 40.3155 18.1702C40.4285 17.6427 40.5145 17.1098 40.5731 16.5735C40.6252 16.0505 40.651 15.5253 40.6503 14.9997C40.6503 14.4603 40.6246 13.9195 40.5731 13.4044L40.5788 13.4158Z" fill="#CC2131"/>
<path fill-rule="evenodd" clip-rule="evenodd" d="M58.6821 18.4896C58.6792 18.4267 58.689 18.3639 58.711 18.305C58.7329 18.246 58.7665 18.192 58.8098 18.1463C58.8531 18.1007 58.9051 18.0642 58.9628 18.0391C59.0205 18.014 59.0827 18.0008 59.1456 18.0003C59.2105 17.9981 59.2751 18.0092 59.3354 18.0331C59.3958 18.0569 59.4506 18.0928 59.4965 18.1387C59.5424 18.1846 59.5784 18.2394 59.6022 18.2998C59.626 18.3601 59.6371 18.4247 59.635 18.4896C59.635 18.616 59.5848 18.7371 59.4954 18.8265C59.4061 18.9158 59.2849 18.966 59.1585 18.966C59.0321 18.966 58.911 18.9158 58.8216 18.8265C58.7323 18.7371 58.6821 18.616 58.6821 18.4896ZM59.1456 18.8501C59.1964 18.8566 59.248 18.8521 59.2969 18.8371C59.3458 18.8221 59.3909 18.7968 59.4293 18.763C59.4677 18.7291 59.4985 18.6875 59.5196 18.6409C59.5406 18.5942 59.5515 18.5436 59.5515 18.4925C59.5515 18.4413 59.5406 18.3907 59.5196 18.344C59.4985 18.2974 59.4677 18.2558 59.4293 18.2219C59.3909 18.1881 59.3458 18.1628 59.2969 18.1478C59.248 18.1328 59.1964 18.1283 59.1456 18.1348C59.0586 18.1458 58.9785 18.1882 58.9205 18.2541C58.8624 18.3199 58.8304 18.4047 58.8304 18.4925C58.8304 18.5802 58.8624 18.665 58.9205 18.7308C58.9785 18.7967 59.0586 18.8391 59.1456 18.8501ZM59.0941 18.6956H58.9911V18.2836H59.2773C59.3288 18.3093 59.3288 18.3608 59.3288 18.4123C59.3248 18.4343 59.3158 18.4551 59.3024 18.473C59.289 18.4909 59.2715 18.5054 59.2515 18.5153L59.3545 18.6956H59.2258L59.1742 18.5411H59.097V18.461H59.1485C59.1743 18.461 59.2 18.461 59.2 18.4352C59.2258 18.4352 59.2258 18.4095 59.2258 18.3837C59.226 18.3803 59.2254 18.3768 59.2242 18.3736C59.223 18.3704 59.2211 18.3675 59.2187 18.365C59.2162 18.3626 59.2133 18.3607 59.2101 18.3595C59.2069 18.3583 59.2034 18.3577 59.2 18.358C59.2 18.3322 59.1743 18.358 59.1485 18.358H59.097L59.0941 18.6956Z" fill="white"/>
<path fill-rule="evenodd" clip-rule="evenodd" d="M30.6909 19.3389C30.298 19.4596 29.8911 19.5288 29.4804 19.545C28.7078 19.545 28.2443 19.0557 28.2443 18.18C28.2496 17.9884 28.2668 17.7972 28.2958 17.6077L28.3988 17.0154L28.4761 16.5261L29.1714 12.3025H30.7166L30.5363 13.2296H31.5093L31.2775 14.7749H30.2988L29.8868 17.2987C29.8688 17.3833 29.8602 17.4697 29.861 17.5562C29.861 17.891 30.0156 18.0198 30.4019 18.0198C30.5661 18.0169 30.7299 17.9997 30.8912 17.9683L30.6909 19.3389ZM35.6871 19.2874C35.1509 19.4402 34.5963 19.5181 34.0388 19.5192C33.666 19.5648 33.2877 19.5249 32.9327 19.4025C32.5776 19.2801 32.255 19.0785 31.9895 18.8129C31.7239 18.5474 31.5223 18.2248 31.3999 17.8697C31.2775 17.5147 31.2376 17.1364 31.2832 16.7636C31.2832 14.6261 32.4679 13.0808 34.1161 13.0808C34.411 13.0651 34.7058 13.113 34.9806 13.2211C35.2554 13.3292 35.5038 13.4951 35.7089 13.7076C35.914 13.92 36.0711 14.1741 36.1695 14.4525C36.268 14.7309 36.3054 15.0272 36.2794 15.3214C36.2742 15.8329 36.2138 16.3423 36.0991 16.8409H32.8799C32.8615 16.9079 32.8528 16.9773 32.8542 17.0469C32.8542 17.7623 33.3435 18.1285 34.2706 18.1285C34.8504 18.1264 35.4224 17.9944 35.9446 17.7422L35.6871 19.2874ZM34.7342 15.6047V15.2956C34.7469 15.19 34.7359 15.0828 34.702 14.9819C34.6681 14.881 34.612 14.7889 34.538 14.7124C34.464 14.636 34.3738 14.5769 34.2741 14.5397C34.1744 14.5025 34.0676 14.488 33.9616 14.4973C33.4465 14.4973 33.0859 14.8836 32.9314 15.6047H34.7342ZM18.3292 19.4162H16.7339L17.661 13.5716L15.575 19.4162H14.4676L14.3388 13.5973L13.3602 19.4162H11.7863L13.0483 11.8203H15.3918L15.4433 16.5075L17.0172 11.8203H19.5925L18.3292 19.4162ZM22.218 16.662C22.1161 16.6425 22.0125 16.6338 21.9089 16.6363C20.9818 16.6363 20.5182 16.9968 20.5182 17.5634C20.5095 17.6457 20.5183 17.729 20.5443 17.8076C20.5702 17.8862 20.6127 17.9584 20.6687 18.0193C20.7248 18.0802 20.7932 18.1285 20.8694 18.1609C20.9456 18.1933 21.0278 18.2091 21.1106 18.2072C21.8832 18.2058 22.1922 17.562 22.218 16.662ZM23.5056 19.4176H22.1149L22.1407 18.7738C21.9458 19.0342 21.6868 19.2398 21.389 19.3707C21.0912 19.5016 20.7646 19.5532 20.441 19.5206C20.2339 19.5057 20.0319 19.4497 19.8468 19.3557C19.6617 19.2618 19.4972 19.1319 19.3629 18.9736C19.2286 18.8154 19.1273 18.6319 19.0647 18.434C19.0022 18.236 18.9798 18.0276 18.9988 17.8209C19.0016 17.5499 19.045 17.2808 19.1275 17.0226C19.3851 16.0697 20.3379 15.4774 21.8059 15.4487C21.9862 15.4487 22.2695 15.4487 22.5213 15.4745C22.5593 15.3405 22.5766 15.2016 22.5728 15.0624C22.5728 14.6504 22.238 14.5216 21.4911 14.5216C21.0366 14.5189 20.5846 14.5885 20.152 14.7276L19.9202 14.7806L19.8172 14.8063L20.0489 13.4156C20.6539 13.2051 21.2885 13.0921 21.9289 13.0808C23.3196 13.0808 24.0665 13.7247 24.0665 14.9093C24.0828 15.3144 24.0569 15.7201 23.9892 16.1197L23.6401 18.3346L23.5886 18.7209L23.5629 19.0299L23.5371 19.2359L23.5056 19.4176ZM43.4632 13.2897C43.9704 13.3068 44.4657 13.4483 44.9054 13.7018L45.1915 12.0536C45.0575 11.9936 44.9199 11.942 44.7795 11.899L44.1356 11.7188C43.2976 11.5619 42.4324 11.6422 41.6375 11.9505C41.2854 12.1826 40.965 12.4596 40.6847 12.7747L40.4786 12.7231L38.8304 13.8821L38.9077 13.2382H37.2051L36.2036 19.4176H37.826L38.4184 16.0969C38.4184 16.0969 38.6501 15.6333 38.7531 15.4788C38.8532 15.3375 38.9903 15.2267 39.1494 15.1585C39.3084 15.0904 39.4833 15.0675 39.6545 15.0925H39.7833C39.7293 15.485 39.7035 15.8809 39.706 16.2771C39.6514 16.6869 39.6853 17.1036 39.8055 17.4992C39.9257 17.8947 40.1294 18.2598 40.4028 18.5699C40.6762 18.8799 41.013 19.1277 41.3904 19.2964C41.7678 19.4651 42.177 19.5509 42.5904 19.5478C43.0698 19.5447 43.5465 19.4754 44.0069 19.3418L44.293 17.5906C43.8793 17.839 43.4102 17.9806 42.9281 18.0026C41.9752 18.0026 41.4086 17.2872 41.4086 16.1426C41.4029 14.4715 42.2528 13.2869 43.4632 13.2869V13.2897ZM57.1369 11.8218L56.7763 13.9851C56.6334 13.7203 56.4214 13.4991 56.163 13.345C55.9046 13.1908 55.6093 13.1094 55.3084 13.1095C54.8555 13.123 54.4155 13.2628 54.0378 13.5131C53.6601 13.7634 53.3599 14.1141 53.1708 14.5259V14.5001L52.1407 13.8821L52.2437 13.2382H50.5182L49.5367 19.4162H51.1334L51.6829 16.0897C51.6829 16.0897 52.0949 15.6261 52.1979 15.4716C52.2835 15.3608 52.3914 15.2692 52.5147 15.2026C52.6379 15.1361 52.7737 15.0961 52.9133 15.0853C52.7166 15.6746 52.6199 16.2926 52.6272 16.9138C52.6272 18.459 53.4255 19.4892 54.6102 19.4892C54.8957 19.4949 55.1788 19.4353 55.4377 19.3147C55.6966 19.1942 55.9245 19.016 56.1039 18.7938L56.0266 19.4119H57.5489L58.7851 11.8161H57.1369V11.8218ZM55.1539 17.9497C54.613 17.9497 54.3297 17.5376 54.3297 16.7393C54.3297 15.5288 54.8448 14.6532 55.5917 14.6532C56.164 14.6532 56.4415 15.091 56.4415 15.8636C56.4415 17.0912 55.9265 17.9497 55.1539 17.9497ZM47.7139 16.662C47.6121 16.6425 47.5085 16.6338 47.4049 16.6363C46.4778 16.6363 46.0142 16.9968 46.0142 17.5634C46.0054 17.6457 46.0143 17.729 46.0403 17.8076C46.0662 17.8862 46.1087 17.9584 46.1647 18.0193C46.2208 18.0802 46.2892 18.1285 46.3654 18.1609C46.4416 18.1933 46.5238 18.2091 46.6065 18.2072C47.3763 18.2058 47.6882 17.562 47.7139 16.662ZM49.0016 19.4176H47.5852L47.6367 18.7738C47.4418 19.0342 47.1828 19.2398 46.885 19.3707C46.5872 19.5016 46.2606 19.5532 45.937 19.5206C45.7261 19.5106 45.5194 19.4582 45.3291 19.3666C45.1389 19.275 44.9691 19.1461 44.8297 18.9875C44.6903 18.8289 44.5843 18.6439 44.5179 18.4435C44.4515 18.2431 44.4261 18.0313 44.4432 17.8209C44.4432 16.353 45.5507 15.4516 47.3048 15.4516C47.5368 15.4481 47.7689 15.4567 48.0001 15.4773C48.044 15.344 48.07 15.2055 48.0774 15.0653C48.0774 14.6532 47.7426 14.5245 46.97 14.5245C46.5156 14.5239 46.0639 14.5934 45.6308 14.7305L45.4247 14.782L45.3217 14.8078L45.5535 13.4171C46.1585 13.2066 46.7931 13.0936 47.4335 13.0823C48.8242 13.0823 49.5453 13.7261 49.5453 14.9108C49.5751 15.3159 49.5491 15.7231 49.4681 16.1212L49.1333 18.336L49.0817 18.7223L49.0302 19.0313L49.0045 19.2374V19.4162L49.0016 19.4176ZM26.8808 14.5531C27.2863 14.5552 27.6911 14.5897 28.0912 14.6561L28.323 13.2139C27.8594 13.1624 27.2413 13.0851 26.8808 13.0851C25.078 13.0851 24.4857 14.0638 24.4857 15.1969C24.4798 15.5723 24.594 15.9397 24.8118 16.2455C25.0296 16.5513 25.3394 16.7795 25.6961 16.8966C26.34 17.2057 26.443 17.2572 26.443 17.5405C26.443 17.9268 26.1082 18.1586 25.4901 18.1586C24.9895 18.1586 24.4928 18.0715 24.0221 17.901L23.8419 19.3175L23.8676 19.3432L24.1767 19.3947C24.3126 19.4276 24.4501 19.4534 24.5887 19.472C24.975 19.4978 25.3041 19.5235 25.5158 19.5235C27.3186 19.5235 28.0654 18.8282 28.0654 17.4632C28.0772 17.0835 27.9656 16.7101 27.7474 16.399C27.5292 16.088 27.2161 15.856 26.855 15.7377C26.1597 15.4287 26.0824 15.3772 26.0824 15.0939C26.0824 14.8106 26.39 14.5488 26.8793 14.5488L26.8808 14.5531Z" fill="#1B3771"/>
<path fill-rule="evenodd" clip-rule="evenodd" d="M45.6265 11.5618L45.3403 13.2101C44.9007 12.9565 44.4054 12.815 43.8981 12.798C42.6877 12.798 41.8378 13.9827 41.8378 15.6595C41.8378 16.8184 42.4101 17.5195 43.3573 17.5195C43.8357 17.4958 44.3024 17.3637 44.7222 17.1332L44.4361 18.8587C43.9765 18.999 43.5 19.077 43.0196 19.0904C41.2684 19.0904 40.1868 17.8285 40.1868 15.7997C40.1868 13.0956 41.6805 11.1898 43.818 11.1898C44.0691 11.1859 44.3199 11.2118 44.5649 11.2671L45.2087 11.4216C45.4147 11.4989 45.4662 11.5246 45.6208 11.5761L45.6265 11.5618ZM40.4243 12.695H40.2755C39.7346 12.695 39.4256 12.9525 38.9363 13.6965L39.0908 12.7436H37.6171L36.6156 18.9245H38.2381C38.8304 15.1387 38.9849 14.4892 39.7575 14.4892H39.8605C39.9789 13.8699 40.1872 13.2712 40.4786 12.7122L40.4271 12.6864L40.4243 12.695ZM31.1029 18.8472C30.7318 18.9839 30.3395 19.0537 29.944 19.0532C29.7639 19.0701 29.5823 19.0457 29.4131 18.9819C29.2438 18.918 29.0913 18.8165 28.9672 18.6849C28.8431 18.5533 28.7505 18.3952 28.6967 18.2225C28.6428 18.0498 28.629 17.8671 28.6563 17.6883C28.6619 17.5071 28.6791 17.3265 28.7078 17.1475L28.8109 16.5294L28.8881 16.0401L29.5835 11.8165H31.1802L30.9999 12.7436H31.824L31.618 14.2631H30.7939L30.3561 16.8384C30.336 16.9228 30.3273 17.0094 30.3303 17.096C30.3303 17.405 30.4848 17.5338 30.8711 17.5338C31.0191 17.5472 31.1682 17.5296 31.3089 17.4823L31.1029 18.8472ZM24.8963 14.698C24.8915 15.0763 25.0059 15.4464 25.2231 15.7561C25.4403 16.0658 25.7495 16.2993 26.1067 16.4235C26.7763 16.7326 26.8793 16.8356 26.8793 17.0931C26.8793 17.4794 26.5932 17.6654 25.9522 17.6654C25.4625 17.662 24.9762 17.5838 24.51 17.4336L24.2782 18.8501L24.3555 18.8758L24.6416 18.9273C24.7847 18.9635 24.9319 18.9808 25.0795 18.9788C25.3697 19.0175 25.6623 19.0348 25.9551 19.0304C27.6548 19.0304 28.4532 18.3865 28.4532 16.9701C28.4769 16.5985 28.3793 16.2292 28.1749 15.918C27.9705 15.6068 27.6704 15.3704 27.32 15.2446C26.6247 14.9356 26.5474 14.8583 26.5474 14.575C26.5474 14.2402 26.8336 14.0857 27.3458 14.0857C27.7332 14.0891 28.1202 14.1149 28.5047 14.1629L28.7365 12.7465C28.2683 12.6676 27.7947 12.6245 27.32 12.6177C25.5144 12.6177 24.8706 13.5706 24.8963 14.7038V14.698ZM57.961 18.9216H56.443L56.5202 18.3293C56.3356 18.5436 56.1061 18.7147 55.8479 18.8304C55.5898 18.9461 55.3094 19.0036 55.0265 18.9989C53.8419 18.9989 53.0692 17.9974 53.0692 16.4507C53.0692 14.3904 54.2797 12.6392 55.6961 12.6392C56.004 12.6412 56.3066 12.7199 56.5764 12.8683C56.8462 13.0167 57.0748 13.2301 57.2413 13.4891L57.6019 11.3258H59.1986L57.961 18.9216ZM55.5845 17.4851C56.3314 17.4851 56.8464 16.6095 56.8464 15.3991C56.8464 14.6007 56.5603 14.1887 55.9966 14.1887C55.2812 14.1887 54.7346 15.0386 54.7346 16.249C54.7394 17.0731 55.0227 17.4851 55.5845 17.4851ZM36.039 18.7986C35.4985 18.974 34.9333 19.061 34.365 19.0561C33.9909 19.1026 33.6111 19.0622 33.2551 18.938C32.8991 18.8139 32.5766 18.6093 32.3125 18.3403C32.0484 18.0712 31.8499 17.7449 31.7325 17.3866C31.615 17.0284 31.5817 16.6479 31.6352 16.2747C31.6352 14.1629 32.8198 12.592 34.4423 12.592C34.739 12.5736 35.0361 12.6194 35.3135 12.7263C35.5909 12.8331 35.842 12.9985 36.0498 13.2111C36.2575 13.4237 36.417 13.6786 36.5173 13.9584C36.6177 14.2382 36.6566 14.5364 36.6313 14.8325C36.6277 15.3542 36.5585 15.8733 36.4253 16.3777H33.239C33.2196 16.4358 33.2109 16.4969 33.2133 16.558C33.2133 17.2734 33.7026 17.6397 34.6297 17.6397C35.211 17.6502 35.7859 17.5175 36.3037 17.2534L36.039 18.7986ZM35.1376 15.1158V14.8082C35.1504 14.7025 35.1394 14.5953 35.1055 14.4944C35.0715 14.3935 35.0155 14.3015 34.9415 14.225C34.8675 14.1485 34.7773 14.0895 34.6776 14.0523C34.5778 14.0151 34.4711 14.0006 34.365 14.0098C33.85 14.0098 33.4894 14.3962 33.3349 15.1173L35.1376 15.1158ZM18.7412 18.9273H17.1459L18.0731 13.0813L15.987 18.9273H14.8796L14.7509 13.1328L13.7722 18.9273H12.2785L13.5404 11.3315H15.8583L15.9355 16.0444L17.4807 11.3315H20.0046L18.7427 18.9273H18.7412ZM22.733 16.1717C22.5785 16.1717 22.5012 16.146 22.3725 16.146C21.4711 16.146 21.0075 16.4808 21.0075 17.0988C20.9963 17.1787 21.0031 17.26 21.0272 17.337C21.0513 17.4139 21.0922 17.4845 21.147 17.5437C21.2018 17.6028 21.2691 17.6491 21.3439 17.679C21.4188 17.709 21.4994 17.722 21.5798 17.7169C22.2494 17.7169 22.713 17.0988 22.7387 16.1717H22.733ZM23.9177 18.9273H22.5785L22.6043 18.2835C22.4022 18.5359 22.1421 18.7357 21.8461 18.8657C21.5502 18.9958 21.2271 19.0523 20.9045 19.0304C20.6945 19.028 20.4873 18.9815 20.2964 18.8938C20.1056 18.806 19.9353 18.679 19.7968 18.5211C19.6583 18.3632 19.5547 18.1778 19.4926 17.9771C19.4305 17.7764 19.4114 17.5649 19.4366 17.3564C19.4366 15.8369 20.4667 14.9613 22.2695 14.9613C22.4497 14.9613 22.6815 14.9871 22.939 15.0128C22.9756 14.8874 22.9929 14.7571 22.9906 14.6265C22.9906 14.2144 22.7044 14.0542 21.9604 14.0542C21.5093 14.0486 21.0593 14.1006 20.6212 14.2087L20.3895 14.286L20.2349 14.3117L20.4667 12.9211C21.0892 12.7235 21.738 12.6212 22.3911 12.6177C23.7818 12.6177 24.5286 13.2358 24.5286 14.4205C24.5187 14.8353 24.4756 15.2487 24.3998 15.6566L24.0393 17.8457L23.9878 18.232L23.962 18.541L23.9363 18.7728L23.9105 18.9273H23.9177ZM48.2276 16.1717C48.0473 16.1717 47.97 16.146 47.867 16.146C46.9399 16.146 46.4763 16.4808 46.4763 17.0988C46.4681 17.1798 46.4776 17.2616 46.5041 17.3386C46.5306 17.4156 46.5735 17.4859 46.6298 17.5447C46.6861 17.6034 46.7545 17.6493 46.8303 17.679C46.9061 17.7088 46.9874 17.7217 47.0687 17.7169C47.7125 17.7169 48.2018 17.0988 48.2276 16.1717ZM49.4122 18.9273H48.0731L48.0988 18.2835C47.8968 18.5359 47.6367 18.7357 47.3407 18.8657C47.0447 18.9958 46.7216 19.0523 46.3991 19.0304C46.1891 19.0278 45.982 18.9811 45.7913 18.8933C45.6005 18.8055 45.4304 18.6785 45.2919 18.5206C45.1535 18.3627 45.0498 18.1775 44.9876 17.9769C44.9255 17.7763 44.9062 17.5649 44.9311 17.3564C44.9311 15.8369 45.9613 14.9613 47.764 14.9613C47.9443 14.9613 48.1761 14.9871 48.4079 15.0128C48.4491 14.8876 48.475 14.7579 48.4851 14.6265C48.4851 14.2144 48.199 14.0542 47.455 14.0542C46.9953 14.0487 46.5368 14.1006 46.09 14.2087L45.884 14.286L45.7295 14.3117L45.9613 12.9211C46.5858 12.7209 47.237 12.6166 47.8928 12.612C49.2835 12.612 50.0046 13.2301 50.0046 14.4148C50.0081 14.8303 49.965 15.245 49.8758 15.6509L49.541 17.84L49.4895 18.2263L49.438 18.5353L49.4122 18.7671V18.9216V18.9273ZM53.7388 12.695H53.5815C53.0406 12.695 52.7316 12.9525 52.2423 13.6965L52.3968 12.7436H50.9303L49.9516 18.9245H51.5484C52.1407 15.1387 52.2952 14.4892 53.0678 14.4892H53.1708C53.2892 13.8699 53.4975 13.2712 53.7889 12.7122L53.7388 12.695Z" fill="white"/>
</svg>
