<svg width="40" height="40" viewBox="0 0 40 40" fill="none" xmlns="http://www.w3.org/2000/svg">
<mask id="mask0_1101_542" style="mask-type:alpha" maskUnits="userSpaceOnUse" x="0" y="0" width="40" height="40">
<rect width="40" height="40" fill="#D9D9D9"/>
</mask>
<g mask="url(#mask0_1101_542)">
<path d="M13.1451 32.9996C12.8609 33.2283 12.5612 33.2395 12.246 33.0333C11.9309 32.8271 11.8321 32.5456 11.9496 32.1888L14.5457 23.6792L7.89517 18.8877C7.5832 18.6761 7.48704 18.392 7.60671 18.0351C7.72635 17.6783 7.9646 17.4998 8.32146 17.4998H16.6098L19.2732 8.67625C19.3288 8.47542 19.4249 8.33333 19.5617 8.25C19.6984 8.16667 19.8448 8.125 20.0008 8.125C20.1567 8.125 20.3031 8.16667 20.4398 8.25C20.5766 8.33333 20.6727 8.47542 20.7283 8.67625L23.3918 17.4998H31.68C32.0369 17.4998 32.2752 17.6783 32.3948 18.0351C32.5145 18.392 32.4183 18.6761 32.1063 18.8877L25.4558 23.6792L28.0519 32.1888C28.1694 32.5456 28.0706 32.8271 27.7555 33.0333C27.4403 33.2395 27.1406 33.2283 26.8564 32.9996L20.0008 27.8074L13.1451 32.9996ZM16.0008 27.7498L20.0008 24.6825L24.0008 27.7498L22.5168 22.6825L26.2508 19.9998H21.5841L20.0008 14.8331L18.4174 19.9998H13.7508L17.4847 22.6825L16.0008 27.7498Z" fill="white"/>
</g>
</svg>
