<svg width="40" height="40" viewBox="0 0 40 40" fill="none" xmlns="http://www.w3.org/2000/svg">
<mask id="mask0_614_5090" style="mask-type:alpha" maskUnits="userSpaceOnUse" x="0" y="0" width="40" height="40">
<rect width="40" height="40" fill="#D9D9D9"/>
</mask>
<g mask="url(#mask0_614_5090)">
<path d="M8.33333 18.3339C7.65172 18.3339 7.06467 18.0877 6.57217 17.5952C6.07964 17.1027 5.83337 16.5156 5.83337 15.834V8.33394C5.83337 7.65233 6.07964 7.06528 6.57217 6.57278C7.06467 6.08025 7.65172 5.83398 8.33333 5.83398H15.8334C16.515 5.83398 17.1021 6.08025 17.5946 6.57278C18.0871 7.06528 18.3333 7.65233 18.3333 8.33394V15.834C18.3333 16.5156 18.0871 17.1027 17.5946 17.5952C17.1021 18.0877 16.515 18.3339 15.8334 18.3339H8.33333ZM8.33333 34.1672C7.65172 34.1672 7.06467 33.921 6.57217 33.4284C6.07964 32.9359 5.83337 32.3489 5.83337 31.6673V24.1672C5.83337 23.4856 6.07964 22.8986 6.57217 22.406C7.06467 21.9135 7.65172 21.6673 8.33333 21.6673H15.8334C16.515 21.6673 17.1021 21.9135 17.5946 22.406C18.0871 22.8986 18.3333 23.4856 18.3333 24.1672V31.6673C18.3333 32.3489 18.0871 32.9359 17.5946 33.4284C17.1021 33.921 16.515 34.1672 15.8334 34.1672H8.33333ZM24.1666 18.3339C23.485 18.3339 22.8979 18.0877 22.4054 17.5952C21.9129 17.1027 21.6667 16.5156 21.6667 15.834V8.33394C21.6667 7.65233 21.9129 7.06528 22.4054 6.57278C22.8979 6.08025 23.485 5.83398 24.1666 5.83398H31.6667C32.3483 5.83398 32.9353 6.08025 33.4278 6.57278C33.9204 7.06528 34.1666 7.65233 34.1666 8.33394V15.834C34.1666 16.5156 33.9204 17.1027 33.4278 17.5952C32.9353 18.0877 32.3483 18.3339 31.6667 18.3339H24.1666ZM24.1666 34.1672C23.485 34.1672 22.8979 33.921 22.4054 33.4284C21.9129 32.9359 21.6667 32.3489 21.6667 31.6673V24.1672C21.6667 23.4856 21.9129 22.8986 22.4054 22.406C22.8979 21.9135 23.485 21.6673 24.1666 21.6673H31.6667C32.3483 21.6673 32.9353 21.9135 33.4278 22.406C33.9204 22.8986 34.1666 23.4856 34.1666 24.1672V31.6673C34.1666 32.3489 33.9204 32.9359 33.4278 33.4284C32.9353 33.921 32.3483 34.1672 31.6667 34.1672H24.1666ZM8.33333 15.834H15.8334V8.33394H8.33333V15.834ZM24.1666 15.834H31.6667V8.33394H24.1666V15.834ZM24.1666 31.6673H31.6667V24.1672H24.1666V31.6673ZM8.33333 31.6673H15.8334V24.1672H8.33333V31.6673Z" fill="#005DB9"/>
</g>
</svg>
