<svg width="18" height="13" viewBox="0 0 18 13" fill="none" xmlns="http://www.w3.org/2000/svg">
<path d="M0.999975 12.1344C0.787475 12.1344 0.609358 12.0625 0.465625 11.9187C0.321875 11.7749 0.25 11.5967 0.25 11.3841C0.25 11.1715 0.321875 10.9934 0.465625 10.8498C0.609358 10.7063 0.787475 10.6345 0.999975 10.6345H17C17.2125 10.6345 17.3906 10.7064 17.5344 10.8502C17.6781 10.994 17.75 11.1722 17.75 11.3848C17.75 11.5974 17.6781 11.7755 17.5344 11.919C17.3906 12.0626 17.2125 12.1344 17 12.1344H0.999975ZM0.999975 7.24981C0.787475 7.24981 0.609358 7.17791 0.465625 7.03411C0.321875 6.89029 0.25 6.71209 0.25 6.49951C0.25 6.28691 0.321875 6.10882 0.465625 5.96523C0.609358 5.82165 0.787475 5.74986 0.999975 5.74986H17C17.2125 5.74986 17.3906 5.82176 17.5344 5.96556C17.6781 6.10938 17.75 6.28758 17.75 6.50016C17.75 6.71276 17.6781 6.89085 17.5344 7.03443C17.3906 7.17802 17.2125 7.24981 17 7.24981H0.999975ZM0.999975 2.36521C0.787475 2.36521 0.609358 2.2933 0.465625 2.14948C0.321875 2.00568 0.25 1.82748 0.25 1.61488C0.25 1.4023 0.321875 1.22422 0.465625 1.08063C0.609358 0.937034 0.787475 0.865234 0.999975 0.865234H17C17.2125 0.865234 17.3906 0.937142 17.5344 1.08096C17.6781 1.22478 17.75 1.40298 17.75 1.61556C17.75 1.82816 17.6781 2.00625 17.5344 2.14983C17.3906 2.29342 17.2125 2.36521 17 2.36521H0.999975Z" fill="#072039"/>
</svg>
