<svg width="40" height="40" viewBox="0 0 40 40" fill="none" xmlns="http://www.w3.org/2000/svg">
<mask id="mask0_1101_1079" style="mask-type:alpha" maskUnits="userSpaceOnUse" x="0" y="0" width="40" height="40">
<rect width="40" height="40" fill="#D9D9D9"/>
</mask>
<g mask="url(#mask0_1101_1079)">
<path d="M13.9167 24.775C14.3483 26.0121 14.9685 26.995 15.7773 27.7236C16.586 28.4523 17.6004 28.9587 18.8205 29.2429V30.2076C18.8205 30.5111 18.9343 30.7765 19.1618 31.0041C19.3894 31.2317 19.6549 31.3454 19.9583 31.3454C20.2617 31.3454 20.5272 31.2317 20.7548 31.0041C20.9823 30.7765 21.0961 30.5111 21.0961 30.2076V29.3262C22.3888 29.151 23.5592 28.6654 24.6073 27.8695C25.6554 27.0736 26.1794 25.8668 26.1794 24.2493C26.1794 23.0826 25.8354 22.0506 25.1474 21.1532C24.4594 20.2557 23.1153 19.4459 21.1153 18.7237C19.3632 18.1254 18.1997 17.6072 17.6249 17.1692C17.0501 16.7312 16.7628 16.119 16.7628 15.3326C16.7628 14.5463 17.0571 13.9074 17.6458 13.416C18.2345 12.9245 19.047 12.6788 20.0833 12.6788C20.9508 12.6788 21.6506 12.8834 22.1827 13.2926C22.7147 13.7018 23.1239 14.2151 23.4102 14.8326L25.4679 14.0057C25.1196 13.119 24.5517 12.3599 23.7643 11.7285C22.9769 11.0971 22.1153 10.7451 21.1794 10.6724V9.79098C21.1794 9.48756 21.0656 9.22207 20.8381 8.99452C20.6105 8.76696 20.345 8.65318 20.0416 8.65318C19.7382 8.65318 19.4727 8.76696 19.2452 8.99452C19.0176 9.22207 18.9038 9.48756 18.9038 9.79098V10.6724C17.4829 10.9459 16.3915 11.5223 15.6298 12.4016C14.868 13.2808 14.4872 14.2579 14.4872 15.3326C14.4872 16.5848 14.8664 17.5923 15.625 18.3551C16.3835 19.1179 17.6196 19.807 19.3333 20.4224C21.1047 21.0719 22.3146 21.6547 22.9631 22.1708C23.6116 22.6868 23.9359 23.3796 23.9359 24.2493C23.9359 25.2942 23.5587 26.0533 22.8045 26.5266C22.0502 26.9999 21.2013 27.2365 20.258 27.2365C19.3146 27.2365 18.4727 26.9545 17.7323 26.3904C16.9919 25.8263 16.423 25.0015 16.0256 23.916L13.9167 24.775ZM20.0027 35.8326C17.8129 35.8326 15.7545 35.417 13.8276 34.5859C11.9007 33.7548 10.2245 32.6269 8.79917 31.2022C7.37378 29.7774 6.24535 28.102 5.41388 26.176C4.5824 24.25 4.16667 22.192 4.16667 20.0021C4.16667 17.8122 4.58222 15.7538 5.41333 13.8269C6.24444 11.9 7.37236 10.2239 8.79708 8.79852C10.2218 7.37313 11.8972 6.2447 13.8233 5.41323C15.7493 4.58175 17.8073 4.16602 19.9972 4.16602C22.1871 4.16602 24.2454 4.58157 26.1723 5.41268C28.0993 6.2438 29.7754 7.37171 31.2008 8.79643C32.6261 10.2212 33.7546 11.8966 34.586 13.8226C35.4175 15.7487 35.8333 17.8066 35.8333 19.9965C35.8333 22.1864 35.4177 24.2448 34.5866 26.1717C33.7555 28.0986 32.6276 29.7747 31.2028 31.2001C29.7781 32.6255 28.1027 33.7539 26.1766 34.5854C24.2506 35.4169 22.1926 35.8326 20.0027 35.8326ZM20 33.3326C23.7222 33.3326 26.875 32.041 29.4583 29.4576C32.0416 26.8743 33.3333 23.7215 33.3333 19.9993C33.3333 16.2771 32.0416 13.1243 29.4583 10.541C26.875 7.95764 23.7222 6.66598 20 6.66598C16.2777 6.66598 13.125 7.95764 10.5416 10.541C7.95829 13.1243 6.66663 16.2771 6.66663 19.9993C6.66663 23.7215 7.95829 26.8743 10.5416 29.4576C13.125 32.041 16.2777 33.3326 20 33.3326Z" fill="white"/>
</g>
</svg>
