<svg width="56" height="56" viewBox="0 0 56 56" fill="none" xmlns="http://www.w3.org/2000/svg">
<rect width="56" height="56" rx="28" fill="#005DB9"/>
<mask id="mask0_614_5145" style="mask-type:alpha" maskUnits="userSpaceOnUse" x="12" y="12" width="32" height="32">
<rect x="12" y="12" width="32" height="32" fill="#D9D9D9"/>
</mask>
<g mask="url(#mask0_614_5145)">
<path d="M23.8308 34.8355C23.6376 34.6424 23.541 34.4082 23.541 34.133C23.541 33.8578 23.6376 33.6236 23.8308 33.4305L29.2616 27.9997L23.8308 22.5689C23.6376 22.3757 23.541 22.1415 23.541 21.8663C23.541 21.5911 23.6376 21.3569 23.8308 21.1638C24.024 20.9706 24.2581 20.874 24.5333 20.874C24.8085 20.874 25.0427 20.9706 25.2359 21.1638L31.2282 27.1561C31.353 27.2809 31.441 27.4125 31.4923 27.551C31.5436 27.6894 31.5692 27.839 31.5692 27.9997C31.5692 28.1603 31.5436 28.3099 31.4923 28.4484C31.441 28.5868 31.353 28.7184 31.2282 28.8432L25.2359 34.8355C25.0427 35.0287 24.8085 35.1253 24.5333 35.1253C24.2581 35.1253 24.024 35.0287 23.8308 34.8355Z" fill="white"/>
</g>
</svg>
