<svg width="60" height="30" viewBox="0 0 60 30" fill="none" xmlns="http://www.w3.org/2000/svg">
<g clip-path="url(#clip0_1105_1502)">
<path fill-rule="evenodd" clip-rule="evenodd" d="M2.62437 7.94369H8.54619C9.04428 7.90923 9.54327 7.99645 10.0001 8.19783C10.457 8.39921 10.858 8.70871 11.1686 9.09963C11.4791 9.49055 11.69 9.95115 11.7828 10.4417C11.8757 10.9323 11.8478 11.4381 11.7016 11.9154C11.4707 13.0294 10.8524 14.0254 9.95657 14.7266C9.06072 15.4277 7.94533 15.7886 6.80855 15.7452H4.32978L3.47528 19.6131H-1.90735e-06L2.62437 7.94369ZM45.4604 10.8867C46.6532 10.5643 47.8779 10.3742 49.1123 10.3198C51.3452 10.2852 53.7929 10.9165 53.2261 13.5111L51.8429 19.6131H48.6528L48.8652 18.6918C47.1276 20.3626 42.7656 20.4652 43.4745 16.6343C43.9722 14.4002 46.3817 13.6913 49.9632 13.6913C50.2126 12.6983 49.5025 12.4501 48.2924 12.4859C47.2252 12.5352 46.1723 12.7506 45.1716 13.1244L45.4544 10.8903L45.4604 10.8867ZM46.7731 16.4899C46.3125 17.1988 46.951 17.8027 47.6599 17.7669C48.0361 17.797 48.4108 17.6923 48.717 17.4715C49.0231 17.2506 49.2406 16.9281 49.3307 16.5615C49.4011 16.2775 49.4381 16.0292 49.5085 15.7464H48.7256C48.1205 15.7452 47.1276 15.8872 46.7731 16.4899ZM13.4393 10.8867L13.1612 13.1208C14.1481 12.7421 15.1901 12.5265 16.2462 12.4823C17.4528 12.4465 18.1557 12.6948 17.9481 13.6877C14.3678 13.6877 11.9558 14.3966 11.4582 16.6307C10.7493 20.4605 15.1101 20.3542 16.8131 18.6882L16.6007 19.6095H19.823L21.2062 13.5099C21.773 10.9213 19.2967 10.2876 17.0578 10.3186C15.8344 10.3693 14.6207 10.5594 13.4405 10.8855L13.4393 10.8867ZM14.7521 16.4899C15.1101 15.8932 16.0994 15.7452 16.6616 15.7452H17.4767C17.4005 16.0129 17.3411 16.2852 17.2989 16.5603C17.2007 16.9284 16.9768 17.2505 16.6659 17.4707C16.355 17.6909 15.9768 17.7953 15.597 17.7657C14.8881 17.8015 14.2842 17.1988 14.7449 16.4887L14.7521 16.4899ZM22.766 10.6039H26.0635L26.5957 15.7452L29.818 10.6039H33.2229L25.3856 22.9082H21.6979L24.1086 19.2909L22.766 10.6039ZM56.5235 7.09277L53.7225 19.6131H57.1632L60 7.09516H56.5235V7.09277ZM34.6836 7.94369L32.0581 19.6107H35.4976L36.3831 15.7452H38.8308C39.9731 15.7951 41.096 15.4374 41.9989 14.7358C42.9017 14.0343 43.5259 13.0347 43.7597 11.9154C43.903 11.4382 43.9286 10.9334 43.8346 10.444C43.7405 9.95472 43.5295 9.4954 43.2196 9.10525C42.9096 8.71511 42.5099 8.40571 42.0545 8.20346C41.5991 8.0012 41.1016 7.91208 40.6043 7.94369H34.6836ZM37.5909 10.3198H39.2915C39.4879 10.3113 39.6834 10.3507 39.8611 10.4346C40.0388 10.5186 40.1934 10.6446 40.3115 10.8017C40.4296 10.9588 40.5077 11.1423 40.5389 11.3364C40.5702 11.5304 40.5537 11.7292 40.4909 11.9154C40.365 12.3605 40.1018 12.7544 39.7387 13.041C39.3757 13.3275 38.9313 13.4921 38.4692 13.5111H36.8796L37.5909 10.3198ZM5.56976 10.3198L4.82506 13.5111H6.4541C6.91204 13.4918 7.35179 13.3265 7.70908 13.0394C8.06638 12.7523 8.32249 12.3585 8.43998 11.9154C8.50594 11.7316 8.52579 11.5344 8.49776 11.3411C8.46973 11.1478 8.39469 10.9644 8.27923 10.8068C8.16376 10.6493 8.0114 10.5225 7.83551 10.4376C7.65962 10.3527 7.46558 10.3123 7.27041 10.3198H5.56976Z" fill="white"/>
</g>
<defs>
<clipPath id="clip0_1105_1502">
<rect width="60" height="30" fill="white"/>
</clipPath>
</defs>
</svg>
