<svg width="80" height="80" viewBox="0 0 80 80" fill="none" xmlns="http://www.w3.org/2000/svg">
<rect width="80" height="80" rx="40" fill="#005DB9"/>
<mask id="mask0_614_5008" style="mask-type:alpha" maskUnits="userSpaceOnUse" x="20" y="20" width="40" height="40">
<rect x="20" y="20" width="40" height="40" fill="#D9D9D9"/>
</mask>
<g mask="url(#mask0_614_5008)">
<path d="M37.4135 45.9775L45.7435 40.6442C45.9722 40.4882 46.0865 40.2735 46.0865 40C46.0865 39.7265 45.9722 39.5117 45.7435 39.3558L37.4135 34.0225C37.1571 33.8494 36.8991 33.8355 36.6395 33.9808C36.3798 34.1261 36.25 34.3493 36.25 34.6506V45.3493C36.25 45.6506 36.3798 45.8738 36.6395 46.0191C36.8991 46.1644 37.1571 46.1505 37.4135 45.9775ZM27.1795 52.4999C26.3376 52.4999 25.625 52.2083 25.0417 51.6249C24.4584 51.0416 24.1667 50.329 24.1667 49.4871V30.5128C24.1667 29.6709 24.4584 28.9583 25.0417 28.375C25.625 27.7917 26.3376 27.5 27.1795 27.5H52.8205C53.6623 27.5 54.375 27.7917 54.9583 28.375C55.5416 28.9583 55.8333 29.6709 55.8333 30.5128V49.4871C55.8333 50.329 55.5416 51.0416 54.9583 51.6249C54.375 52.2083 53.6623 52.4999 52.8205 52.4999H27.1795ZM27.1795 50H52.8205C52.9487 50 53.0662 49.9465 53.1731 49.8397C53.2799 49.7328 53.3333 49.6153 53.3333 49.4871V30.5128C53.3333 30.3846 53.2799 30.2671 53.1731 30.1602C53.0662 30.0534 52.9487 30 52.8205 30H27.1795C27.0513 30 26.9338 30.0534 26.8269 30.1602C26.7201 30.2671 26.6667 30.3846 26.6667 30.5128V49.4871C26.6667 49.6153 26.7201 49.7328 26.8269 49.8397C26.9338 49.9465 27.0513 50 27.1795 50Z" fill="white"/>
</g>
</svg>
