<svg width="40" height="40" viewBox="0 0 40 40" fill="none" xmlns="http://www.w3.org/2000/svg">
<mask id="mask0_1101_161" style="mask-type:alpha" maskUnits="userSpaceOnUse" x="0" y="0" width="40" height="40">
<rect width="40" height="40" fill="#D9D9D9"/>
</mask>
<g mask="url(#mask0_1101_161)">
<path d="M8.45528 34.5826C7.61342 34.5826 6.90082 34.2909 6.31749 33.7076C5.73415 33.1243 5.44249 32.4117 5.44249 31.5698V18.2557C4.77154 17.7044 4.26779 16.9891 3.93124 16.1099C3.59471 15.2306 3.58776 14.2814 3.9104 13.2621L5.59632 7.75572C5.81854 7.05489 6.19568 6.48972 6.72774 6.06022C7.25979 5.63075 7.89547 5.41602 8.63478 5.41602H31.3847C32.1241 5.41602 32.7555 5.62114 33.279 6.03139C33.8025 6.44164 34.1839 7.00574 34.4232 7.72368L36.1412 13.2621C36.4638 14.2814 36.4568 15.2274 36.1203 16.1003C35.7838 16.9731 35.2801 17.7023 34.6091 18.2878V31.5698C34.6091 32.4117 34.3174 33.1243 33.7341 33.7076C33.1508 34.2909 32.4382 34.5826 31.5963 34.5826H8.45528ZM23.6924 17.0827C24.6027 17.0827 25.287 16.8044 25.7454 16.2477C26.2037 15.6911 26.3912 15.0934 26.3079 14.4545L25.2951 7.91593H21.2758V14.4993C21.2758 15.2002 21.513 15.8059 21.9873 16.3166C22.4617 16.8273 23.0301 17.0827 23.6924 17.0827ZM16.1924 17.0827C16.9596 17.0827 17.5819 16.8273 18.0595 16.3166C18.537 15.8059 18.7758 15.2002 18.7758 14.4993V7.91593H14.7565L13.7437 14.5186C13.654 15.1104 13.8399 15.6858 14.3014 16.2445C14.763 16.8033 15.3933 17.0827 16.1924 17.0827ZM8.77578 17.0827C9.39331 17.0827 9.92431 16.8674 10.3688 16.4369C10.8132 16.0063 11.0878 15.4651 11.1925 14.8134L12.1733 7.91593H8.63478C8.45314 7.91593 8.3089 7.956 8.20207 8.03614C8.09521 8.11628 8.01507 8.23649 7.96165 8.39677L6.35911 13.8198C6.139 14.5356 6.24263 15.2584 6.66999 15.9881C7.09735 16.7178 7.79928 17.0827 8.77578 17.0827ZM31.2758 17.0827C32.1775 17.0827 32.8677 16.7285 33.3463 16.0202C33.825 15.3118 33.9404 14.5784 33.6925 13.8198L32.0066 8.36468C31.9532 8.20443 31.873 8.08957 31.7662 8.0201C31.6594 7.95066 31.5151 7.91593 31.3335 7.91593H27.8783L28.8591 14.8134C28.9638 15.4651 29.2384 16.0063 29.6828 16.4369C30.1273 16.8674 30.6583 17.0827 31.2758 17.0827ZM8.45528 32.0827H31.5963C31.7459 32.0827 31.8688 32.0346 31.9649 31.9384C32.0611 31.8423 32.1092 31.7194 32.1092 31.5698V19.4352C31.9275 19.5014 31.7758 19.5425 31.654 19.5586C31.5322 19.5746 31.4061 19.5826 31.2758 19.5826C30.5258 19.5826 29.8661 19.4469 29.2966 19.1756C28.7272 18.9042 28.1754 18.4694 27.6412 17.8711C27.1733 18.3924 26.6198 18.808 25.9809 19.1179C25.3421 19.4277 24.6134 19.5826 23.795 19.5826C23.0878 19.5826 22.4211 19.4357 21.795 19.1419C21.169 18.8481 20.5792 18.4245 20.0258 17.8711C19.5108 18.4245 18.9275 18.8481 18.2758 19.1419C17.6241 19.4357 16.9638 19.5826 16.295 19.5826C15.5429 19.5826 14.8378 19.4464 14.1797 19.174C13.5215 18.9015 12.9424 18.4672 12.4424 17.8711C11.7416 18.5719 11.0958 19.0324 10.5049 19.2525C9.91414 19.4726 9.33775 19.5826 8.77578 19.5826C8.64545 19.5826 8.51083 19.5746 8.37195 19.5586C8.23303 19.5425 8.08986 19.5014 7.94245 19.4352V31.5698C7.94245 31.7194 7.99051 31.8423 8.08665 31.9384C8.18282 32.0346 8.3057 32.0827 8.45528 32.0827Z" fill="#005DB9"/>
</g>
</svg>
