<svg width="40" height="40" viewBox="0 0 40 40" fill="none" xmlns="http://www.w3.org/2000/svg">
<mask id="mask0_1101_4393" style="mask-type:alpha" maskUnits="userSpaceOnUse" x="0" y="0" width="40" height="40">
<rect width="40" height="40" fill="#D9D9D9"/>
</mask>
<g mask="url(#mask0_1101_4393)">
<path d="M18.2403 21.0089L20 19.666L21.7339 21.0089C22.0288 21.2375 22.3381 21.2445 22.6618 21.0297C22.9855 20.815 23.0833 20.5292 22.9551 20.1724L22.2627 17.9544L24.1025 16.5474C24.3974 16.3188 24.485 16.0303 24.3653 15.682C24.2457 15.3337 24.0074 15.1596 23.6506 15.1596H21.4038L20.7275 12.9993C20.5993 12.6425 20.3568 12.4641 20 12.4641C19.6431 12.4641 19.4006 12.6425 19.2724 12.9993L18.5961 15.1596H16.3493C15.9925 15.1596 15.75 15.338 15.6218 15.6949C15.4936 16.0517 15.5769 16.3359 15.8718 16.5474L17.7115 17.9544L17.0192 20.1724C16.891 20.5292 16.9845 20.815 17.2997 21.0297C17.6148 21.2445 17.9284 21.2375 18.2403 21.0089ZM12.8013 36.4127C12.3098 36.5857 11.859 36.519 11.4487 36.2124C11.0385 35.9057 10.8333 35.5014 10.8333 34.9992V25.1211C9.77778 24.0185 8.95833 22.7439 8.375 21.2974C7.79167 19.8508 7.5 18.307 7.5 16.666C7.5 13.1788 8.71154 10.2237 11.1346 7.80064C13.5577 5.37756 16.5128 4.16602 20 4.16602C23.4871 4.16602 26.4422 5.37756 28.8653 7.80064C31.2884 10.2237 32.4999 13.1788 32.4999 16.666C32.4999 18.307 32.2083 19.8508 31.6249 21.2974C31.0416 22.7439 30.2221 24.0185 29.1666 25.1211V34.9992C29.1666 35.5014 28.9614 35.9057 28.5512 36.2124C28.1409 36.519 27.6901 36.5858 27.1986 36.4127L20 34.1339L12.8013 36.4127ZM20 26.666C22.7777 26.666 25.1388 25.6938 27.0833 23.7493C29.0277 21.8049 30 19.4438 30 16.666C30 13.8882 29.0277 11.5271 27.0833 9.58264C25.1388 7.6382 22.7777 6.66598 20 6.66598C17.2222 6.66598 14.8611 7.6382 12.9166 9.58264C10.9722 11.5271 9.99996 13.8882 9.99996 16.666C9.99996 19.4438 10.9722 21.8049 12.9166 23.7493C14.8611 25.6938 17.2222 26.666 20 26.666ZM13.3333 33.3904L20 31.6019L26.6666 33.3904V27.1979C25.7158 27.8176 24.6752 28.3005 23.5448 28.6467C22.4145 28.9929 21.2329 29.1659 20 29.1659C18.767 29.1659 17.5854 28.9929 16.4551 28.6467C15.3247 28.3005 14.2842 27.8176 13.3333 27.1979V33.3904Z" fill="#005DB9"/>
</g>
</svg>
